<?xml version="1.0" encoding="UTF-8" standalone="no"?>
<svg
   xmlns:dc="http://purl.org/dc/elements/1.1/"
   xmlns:cc="http://creativecommons.org/ns#"
   xmlns:rdf="http://www.w3.org/1999/02/22-rdf-syntax-ns#"
   xmlns:svg="http://www.w3.org/2000/svg"
   xmlns="http://www.w3.org/2000/svg"
   xmlns:sodipodi="http://sodipodi.sourceforge.net/DTD/sodipodi-0.dtd"
   xmlns:inkscape="http://www.inkscape.org/namespaces/inkscape"
   version="1.1"
   id="svg2"
   xml:space="preserve"
   width="526.69336"
   height="289.25333"
   viewBox="0 0 526.69336 289.25333">
  <g
     id="g10"
     inkscape:groupmode="layer"
     inkscape:label="ink_ext_XXXXXX"
     transform="matrix(1.3333333,0,0,-1.3333333,0,289.25333)"><g
       id="g12"
       transform="scale(0.1)"><path
         d="m 412.633,1776.01 c -9.219,-55.84 -32.535,-98.87 -69.922,-129.08 -35.348,-29.2 -79.148,-43.8 -131.395,-43.8 -58.394,0 -107.57,19.97 -147.5269,59.93 -24.5899,24.59 -40.4727,56.09 -47.6407,94.51 C 12.0391,1780.1 10,1821.34 10,1881.27 c 0,59.94 2.0391,101.17 6.1484,123.71 7.168,38.42 23.0508,69.93 47.6407,94.52 39.9569,39.95 89.1329,59.93 147.5269,59.93 52.754,0 97.2,-14.86 133.313,-44.57 36.113,-29.71 58.785,-72.48 68.004,-128.32 h -108.34 c -12.813,51.74 -43.547,77.61 -92.207,77.61 -32.273,0 -57.125,-12.04 -74.531,-36.11 -13.832,-19.47 -20.746,-68.39 -20.746,-146.77 0,-42.52 0.5,-69.14 1.535,-79.9 3.574,-34.33 12.027,-59.17 25.355,-74.54 16.906,-18.95 39.692,-28.43 68.387,-28.43 48.66,0 79.394,25.87 92.207,77.61 h 108.34"
         style="fill:#8cb5e2;fill-opacity:1;fill-rule:nonzero;stroke:none"
         id="path14" /><path
         d="m 412.633,1776.01 -9.867,1.63 c -8.981,-54.03 -31.071,-94.37 -66.34,-122.94 l -0.082,-0.06 c -33.477,-27.59 -74.606,-41.46 -125.028,-41.51 -56.125,0.1 -102.171,18.85 -140.4566,57 -23.0508,23.09 -37.9883,52.49 -44.8828,89.28 l 0.0078,-0.05 c -3.8867,21.14 -6.0078,62.28 -5.9844,121.91 -0.0234,59.64 2.0977,100.77 5.9844,121.93 l -0.0078,-0.05 c 6.8945,36.79 21.832,66.19 44.8828,89.28 38.2856,38.14 84.3316,56.9 140.4566,57 50.911,-0.05 92.7,-14.17 126.961,-42.29 33.973,-28.01 55.5,-68.14 64.489,-122.23 l 9.867,1.63 v 10 h -108.34 v -10 l 9.707,2.41 c -6.734,27.25 -18.516,48.79 -35.93,63.45 -17.386,14.69 -39.941,21.8 -65.984,21.75 -17.367,0.01 -33.238,-3.26 -47.203,-10.03 -13.965,-6.75 -25.883,-16.99 -35.434,-30.22 l -0.051,-0.07 c -8.597,-12.34 -13.652,-30.47 -17.308,-55.69 -3.555,-25.18 -5.277,-57.38 -5.281,-96.87 0,-21.3 0.125,-38.64 0.379,-52.05 0.261,-13.45 0.632,-22.86 1.203,-28.81 l 0.007,-0.08 c 3.743,-35.39 12.325,-62.12 27.75,-80.05 l 0.086,-0.1 c 9.379,-10.54 20.621,-18.6 33.399,-23.91 12.773,-5.31 27.012,-7.87 42.453,-7.87 26.043,-0.04 48.594,7.07 65.984,21.75 17.414,14.65 29.196,36.2 35.93,63.46 l -9.707,2.4 v -10 h 108.34 v 10 l -9.867,1.63 9.867,-1.63 v 10 h -108.34 c -4.59,0 -8.605,-3.14 -9.707,-7.6 -6.078,-24.49 -16.07,-41.75 -29.395,-52.96 -13.343,-11.18 -30.488,-17 -53.105,-17.05 -13.258,0.01 -24.762,2.18 -34.777,6.34 -10.012,4.18 -18.618,10.32 -26.149,18.75 l -7.461,-6.66 7.555,6.56 c -11.234,12.8 -19.555,35.75 -22.965,69.01 l 0.012,-0.08 c -0.469,4.81 -0.863,14.09 -1.113,27.28 -0.254,13.22 -0.379,30.45 -0.379,51.67 -0.008,38.89 1.726,70.34 5.086,94.08 3.257,23.7 8.578,39.76 13.812,46.9 l -0.047,-0.07 c 7.856,10.84 17.067,18.66 27.949,23.95 10.879,5.26 23.575,8.01 38.477,8.02 22.617,-0.05 39.762,-5.87 53.105,-17.05 13.325,-11.21 23.317,-28.47 29.395,-52.96 1.102,-4.46 5.117,-7.6 9.707,-7.6 h 108.34 c 2.93,0 5.726,1.3 7.625,3.53 1.894,2.24 2.715,5.22 2.242,8.11 -9.453,57.56 -33.266,102.98 -71.52,134.4 -37.96,31.3 -85.062,46.9 -139.664,46.85 -60.668,0.1 -112.9722,-21.1 -154.5972,-62.86 -26.129,-26.09 -42.9571,-59.7 -50.39849,-99.75 l -0.01172,-0.04 C 1.98047,1982.83 0.0234375,1941.51 0,1881.27 0.0234375,1821.05 1.98047,1779.71 6.30859,1755.78 l 0.01172,-0.05 c 7.44139,-40.05 24.26949,-73.66 50.39849,-99.74 41.625,-41.77 93.9292,-62.97 154.5972,-62.86 54.075,-0.06 100.539,15.27 137.762,46.08 l -6.367,7.72 6.281,-7.79 c 39.508,31.87 64.051,77.59 73.508,135.24 0.473,2.89 -0.348,5.87 -2.242,8.1 -1.899,2.24 -4.695,3.53 -7.625,3.53 v -10"
         style="fill:#8cb5e2;fill-opacity:1;fill-rule:nonzero;stroke:none"
         id="path16" /><path
         d="m 689.242,1808.28 c 0,49.18 -7.597,81.45 -22.797,96.82 -11.66,11.78 -27.109,17.67 -46.355,17.67 -18.742,0 -33.942,-5.89 -45.586,-17.67 -15.195,-15.37 -22.801,-47.64 -22.801,-96.82 0,-49.69 7.606,-82.21 22.801,-97.58 11.644,-11.79 26.844,-17.68 45.586,-17.68 19.246,0 34.695,5.89 46.355,17.68 15.2,15.37 22.797,47.89 22.797,97.58 z m 100.66,0 c 0,-38.42 -3.078,-68.9 -9.222,-91.43 -6.66,-25.11 -18.703,-46.62 -36.114,-64.55 -31.25,-32.79 -72.746,-49.17 -124.476,-49.17 -51.227,0 -92.469,16.38 -123.707,49.17 -17.422,17.93 -29.465,39.44 -36.113,64.55 -6.149,22.53 -9.219,53.01 -9.219,91.43 0,71.71 15.367,123.71 46.097,155.99 30.739,32.27 71.715,48.4 122.942,48.4 51.73,0 92.973,-16.13 123.711,-48.4 30.734,-32.28 46.101,-84.28 46.101,-155.99"
         style="fill:#8cb5e2;fill-opacity:1;fill-rule:nonzero;stroke:none"
         id="path18" /><path
         d="m 689.242,1808.28 h 10 c -0.008,25.11 -1.914,46.15 -5.965,63.38 -4.078,17.19 -10.246,30.82 -19.722,40.47 -13.606,13.85 -32.242,20.73 -53.465,20.64 -20.789,0.1 -39.176,-6.84 -52.695,-20.64 -9.481,-9.65 -15.649,-23.28 -19.723,-40.47 -4.051,-17.23 -5.961,-38.27 -5.969,-63.38 0.008,-25.36 1.914,-46.58 5.965,-63.94 4.074,-17.31 10.23,-31 19.727,-40.67 13.519,-13.81 31.914,-20.74 52.695,-20.65 21.219,-0.09 39.867,6.78 53.465,20.65 9.496,9.67 15.648,23.36 19.726,40.67 4.047,17.36 5.953,38.58 5.961,63.94 h -10 -10 c 0.004,-24.33 -1.883,-44.22 -5.433,-59.39 -3.528,-15.21 -8.77,-25.46 -14.473,-31.16 -9.723,-9.71 -21.973,-14.61 -39.246,-14.71 -16.699,0.1 -28.707,4.94 -38.473,14.71 -5.711,5.7 -10.949,15.95 -14.472,31.16 -3.555,15.17 -5.45,35.06 -5.442,59.39 -0.008,24.07 1.887,43.76 5.438,58.79 3.519,15.08 8.754,25.27 14.468,31 9.774,9.75 21.786,14.6 38.481,14.7 17.269,-0.09 29.527,-5 39.25,-14.71 5.719,-5.72 10.949,-15.91 14.469,-30.99 3.55,-15.03 5.437,-34.72 5.433,-58.79 z m 100.66,0 h -10 c 0.016,-37.87 -3.082,-67.65 -8.871,-88.8 l -0.019,-0.07 c -6.278,-23.59 -17.403,-43.42 -33.617,-60.14 l -0.071,-0.07 c -29.355,-30.67 -67.554,-45.97 -117.234,-46.07 -49.152,0.1 -87.098,15.38 -116.469,46.07 l -0.066,0.07 c -16.227,16.72 -27.356,36.55 -33.617,60.14 l -0.02,0.07 c -5.793,21.15 -8.883,50.93 -8.867,88.8 -0.004,35.15 3.777,65.15 11.113,89.95 7.34,24.81 18.152,44.36 32.227,59.14 28.828,30.13 66.507,45.19 115.699,45.3 49.719,-0.1 87.664,-15.19 116.469,-45.3 14.078,-14.78 24.886,-34.33 32.23,-59.14 7.332,-24.8 11.117,-54.8 11.113,-89.95 h 10 10 c -0.004,36.57 -3.902,68.42 -11.933,95.61 -8.028,27.18 -20.27,49.78 -36.93,67.27 -32.672,34.43 -77.207,51.61 -130.949,51.51 -53.266,0.11 -97.535,-17.1 -130.184,-51.51 -16.66,-17.49 -28.894,-40.09 -36.922,-67.27 -8.035,-27.19 -11.929,-59.04 -11.933,-95.61 0.012,-38.96 3.066,-70.15 9.57,-94.07 l -0.019,0.08 c 7.035,-26.63 19.988,-49.83 38.609,-68.96 l -0.07,0.07 c 33.109,-34.88 77.644,-52.38 130.949,-52.27 53.781,-0.11 98.566,17.36 131.711,52.27 l -0.063,-0.07 c 18.61,19.14 31.563,42.33 38.61,68.95 l -0.02,-0.07 c 6.504,23.92 9.559,55.11 9.574,94.07 h -10"
         style="fill:#8cb5e2;fill-opacity:1;fill-rule:nonzero;stroke:none"
         id="path20" /><path
         d="m 1421.51,1607.73 h -100.66 v 242.04 c 0,25.09 -7.09,44.05 -21.26,56.86 -11.65,10.76 -26.33,16.14 -44.05,16.14 -17.72,0 -32.41,-5.13 -44.05,-15.37 -14.69,-12.81 -22.03,-31.25 -22.03,-55.32 V 1607.73 H 1088.8 v 242.04 c 0,25.09 -7.18,44.05 -21.51,56.86 -11.79,10.76 -26.65,16.14 -44.57,16.14 -18.44,0 -33.548,-5.38 -45.337,-16.14 -14.348,-12.81 -21.516,-31.77 -21.516,-56.86 v -242.04 h -99.883 v 400.33 h 97.579 v -36.88 c 26.632,27.66 59.947,41.49 99.897,41.49 46.1,0 81.44,-16.9 106.03,-50.71 32.28,33.81 72.23,50.71 119.87,50.71 42,0 74.78,-11.79 98.35,-35.35 29.2,-29.19 43.8,-67.11 43.8,-113.71 v -255.88"
         style="fill:#8cb5e2;fill-opacity:1;fill-rule:nonzero;stroke:none"
         id="path22" /><path
         d="m 1421.51,1607.73 v 10 h -90.66 v 232.04 c 0,13.48 -1.9,25.7 -5.95,36.54 -4.04,10.83 -10.3,20.25 -18.61,27.74 l -6.7,-7.42 6.78,7.35 c -13.49,12.56 -31.13,18.87 -50.83,18.79 -19.6,0.06 -37.11,-5.88 -50.65,-17.86 l 0.03,0.03 c -8.53,-7.42 -15.03,-16.66 -19.25,-27.28 -4.22,-10.62 -6.21,-22.54 -6.21,-35.58 v -234.35 h -80.66 v 232.04 c 0,13.49 -1.92,25.72 -6.03,36.58 -4.09,10.84 -10.43,20.26 -18.82,27.74 l -6.66,-7.46 6.74,7.39 c -13.65,12.54 -31.42,18.82 -51.31,18.75 -20.34,0.07 -38.365,-6.15 -52.079,-18.75 l 6.742,-7.39 -6.66,7.46 c -8.399,-7.48 -14.743,-16.9 -18.828,-27.74 -4.106,-10.86 -6.028,-23.09 -6.028,-36.58 v -232.04 h -79.883 v 380.33 h 77.579 v -26.88 c 0,-4.08 2.484,-7.75 6.261,-9.27 3.781,-1.53 8.121,-0.61 10.942,2.33 24.953,25.77 55.034,38.32 92.694,38.43 21.84,0 40.63,-3.99 56.77,-11.7 16.13,-7.73 29.74,-19.19 41.18,-34.9 1.74,-2.39 4.45,-3.89 7.41,-4.09 2.97,-0.2 5.86,0.93 7.9,3.07 30.65,31.94 67.36,47.51 112.64,47.62 20.07,0 37.6,-2.81 52.7,-8.25 15.12,-5.44 27.85,-13.45 38.58,-24.17 27.21,-27.32 40.78,-62.07 40.87,-106.64 v -255.88 h 10 v 10 -10 h 10 v 255.88 c 0.1,48.64 -15.53,89.71 -46.72,120.78 -12.84,12.84 -28.29,22.51 -45.96,28.85 -17.68,6.36 -37.55,9.43 -59.47,9.43 -50,0.12 -93.2,-18.13 -127.1,-53.81 l 7.23,-6.9 8.09,5.88 c -13.15,18.11 -29.51,32 -48.72,41.18 -19.22,9.19 -41.14,13.66 -65.4,13.65 -42.25,0.12 -78.788,-15 -107.097,-44.56 l 7.2,-6.93 h 10 v 36.88 c 0,2.63 -1.067,5.21 -2.926,7.07 -1.864,1.86 -4.442,2.93 -7.074,2.93 h -97.579 c -2.629,0 -5.207,-1.07 -7.066,-2.93 -1.867,-1.86 -2.934,-4.44 -2.934,-7.07 v -400.33 c 0,-2.63 1.071,-5.21 2.934,-7.07 1.859,-1.86 4.437,-2.93 7.066,-2.93 h 99.883 c 2.633,0 5.211,1.07 7.071,2.93 1.863,1.86 2.929,4.44 2.929,7.07 v 242.04 c 0,11.6 1.668,21.4 4.735,29.5 3.082,8.11 7.496,14.57 13.441,19.9 l 0.082,0.07 c 9.859,8.92 22.045,13.46 38.595,13.53 15.96,-0.07 27.9,-4.56 37.82,-13.53 l 0.08,-0.06 c 5.95,-5.33 10.36,-11.8 13.45,-19.91 3.06,-8.1 4.73,-17.9 4.73,-29.5 v -242.04 c 0,-2.63 1.07,-5.21 2.93,-7.07 1.86,-1.86 4.44,-2.93 7.07,-2.93 h 100.66 c 2.63,0 5.21,1.07 7.07,2.93 1.86,1.86 2.93,4.44 2.93,7.07 v 244.35 c 0,11.03 1.68,20.36 4.8,28.19 3.13,7.82 7.64,14.2 13.81,19.59 l 0.03,0.03 c 9.74,8.5 21.61,12.82 37.44,12.88 15.74,-0.08 27.46,-4.53 37.27,-13.49 l 0.08,-0.07 c 5.86,-5.32 10.23,-11.78 13.28,-19.9 3.03,-8.12 4.68,-17.93 4.68,-29.54 v -242.04 c 0,-2.63 1.07,-5.21 2.93,-7.07 1.86,-1.86 4.44,-2.93 7.07,-2.93 h 100.66 c 2.64,0 5.21,1.07 7.07,2.93 1.86,1.86 2.93,4.44 2.93,7.07 h -10"
         style="fill:#8cb5e2;fill-opacity:1;fill-rule:nonzero;stroke:none"
         id="path24" /><path
         d="m 1599.77,1607.73 h -100.66 v 400.33 h 100.66 z m 0,467.95 h -100.66 v 81.45 h 100.66 v -81.45"
         style="fill:#8cb5e2;fill-opacity:1;fill-rule:nonzero;stroke:none"
         id="path26" /><path
         d="m 1599.77,1607.73 v 10 h -90.66 v 380.33 h 80.66 v -390.33 h 10 v 10 -10 h 10 v 400.33 c 0,2.63 -1.07,5.21 -2.93,7.07 -1.86,1.86 -4.44,2.93 -7.07,2.93 h -100.66 c -2.63,0 -5.21,-1.07 -7.07,-2.93 -1.86,-1.86 -2.93,-4.44 -2.93,-7.07 v -400.33 c 0,-2.63 1.07,-5.21 2.93,-7.07 1.86,-1.86 4.44,-2.93 7.07,-2.93 h 100.66 c 2.63,0 5.21,1.07 7.07,2.93 1.86,1.86 2.93,4.44 2.93,7.07 z m 0,467.95 v 10 h -90.66 v 61.45 h 80.66 v -71.45 h 10 v 10 -10 h 10 v 81.45 c 0,2.63 -1.07,5.21 -2.93,7.07 -1.86,1.86 -4.44,2.93 -7.07,2.93 h -100.66 c -2.63,0 -5.21,-1.07 -7.07,-2.93 -1.86,-1.86 -2.93,-4.44 -2.93,-7.07 v -81.45 c 0,-2.64 1.07,-5.22 2.93,-7.07 1.86,-1.87 4.44,-2.93 7.07,-2.93 h 100.66 c 2.63,0 5.21,1.06 7.07,2.93 1.86,1.85 2.93,4.43 2.93,7.07 h -10"
         style="fill:#8cb5e2;fill-opacity:1;fill-rule:nonzero;stroke:none"
         id="path28" /><path
         d="m 1983.96,1733.75 c 0,-42.52 -16.41,-75.3 -49.18,-98.36 -30.74,-21.51 -70.96,-32.26 -120.64,-32.26 -37.4,0 -67.88,3.33 -91.43,9.99 -29.72,8.7 -56.1,24.58 -79.15,47.63 l 65.32,65.32 c 25.08,-25.11 60.69,-37.66 106.79,-37.66 47.13,0 70.7,13.84 70.7,41.5 0,22.02 -14.09,34.31 -42.26,36.88 l -63.01,6.15 c -77.87,7.68 -116.79,45.06 -116.79,112.18 0,39.95 15.62,71.71 46.87,95.27 28.68,21.52 64.54,32.28 107.57,32.28 68.64,0 119.6,-15.63 152.91,-46.87 l -61.47,-62.24 c -19.98,17.92 -50.98,26.89 -92.97,26.89 -37.92,0 -56.87,-12.81 -56.87,-38.42 0,-20.49 13.84,-32.01 41.5,-34.57 l 63,-6.15 c 79.4,-7.68 119.11,-46.87 119.11,-117.56"
         style="fill:#8cb5e2;fill-opacity:1;fill-rule:nonzero;stroke:none"
         id="path30" /><path
         d="m 1983.96,1733.75 h -10 c -0.01,-19.99 -3.84,-37.17 -11.25,-52.01 -7.43,-14.83 -18.48,-27.45 -33.69,-38.17 l 0.02,0.02 c -28.6,-20.03 -66.61,-30.45 -114.9,-30.46 -36.8,-0.01 -66.49,3.32 -88.72,9.61 l 0.09,-0.03 c -28.08,8.24 -52.88,23.14 -74.88,45.11 l -7.07,-7.07 7.07,-7.07 65.32,65.32 -7.07,7.07 -7.08,-7.07 c 13.63,-13.65 30.19,-23.89 49.27,-30.61 19.08,-6.72 40.65,-9.98 64.6,-9.98 24.53,0.06 43.73,3.42 58.08,11.75 7.14,4.18 13.01,9.79 16.89,16.66 3.91,6.86 5.74,14.77 5.73,23.09 0,6.56 -1.06,12.8 -3.4,18.48 -3.46,8.57 -9.96,15.56 -18.22,20.13 -8.29,4.62 -18.22,7.16 -29.73,8.23 l 0.06,-0.01 -63,6.15 c -37.59,3.7 -64.43,14.49 -81.65,31.06 -8.64,8.32 -15.06,18.15 -19.45,29.9 -4.38,11.74 -6.67,25.45 -6.67,41.27 0.01,18.68 3.62,34.99 10.69,49.37 7.08,14.37 17.66,26.94 32.2,37.92 l -0.02,-0.01 c 26.74,20.02 60.17,30.24 101.57,30.27 33.56,0.01 62.5,-3.83 86.77,-11.28 24.29,-7.46 43.9,-18.46 59.3,-32.89 l 6.84,7.3 -7.11,7.02 -61.48,-62.23 7.12,-7.03 6.68,7.44 c -22.73,20.31 -56.35,29.43 -99.65,29.45 -20.04,-0.04 -36.12,-3.21 -48.26,-11.32 -6.02,-4.04 -10.89,-9.47 -14.02,-15.87 -3.16,-6.39 -4.59,-13.61 -4.59,-21.23 0,-6.24 1.07,-12.21 3.41,-17.65 3.5,-8.2 9.98,-14.78 18.07,-19.07 8.13,-4.35 17.82,-6.76 29.09,-7.81 l -0.05,0.01 63.01,-6.15 c 38.33,-3.71 65.66,-14.9 83.27,-32.32 8.85,-8.74 15.45,-19.13 19.95,-31.58 4.5,-12.44 6.86,-26.97 6.86,-43.71 h 10 10 c 0,18.61 -2.62,35.48 -8.05,50.51 -8.09,22.56 -22.78,40.79 -43.15,53.57 -20.36,12.83 -46.09,20.44 -76.94,23.44 l -63,6.14 h -0.05 c -12.67,1.15 -21.06,4.4 -25.64,8.29 -2.34,1.96 -3.88,4.04 -5.01,6.61 -1.1,2.57 -1.76,5.71 -1.77,9.72 0.01,5.19 0.94,9.18 2.52,12.38 2.39,4.75 6.25,8.39 13.45,11.37 7.15,2.93 17.51,4.69 30.9,4.67 40.68,0.03 69.07,-8.79 86.29,-24.33 3.97,-3.57 10.03,-3.39 13.79,0.42 l 61.47,62.23 c 1.91,1.93 2.94,4.51 2.89,7.22 -0.05,2.71 -1.18,5.24 -3.16,7.1 -17.91,16.81 -40.44,29.25 -67.11,37.42 -26.69,8.18 -57.56,12.16 -92.64,12.16 -44.65,0.04 -82.94,-11.27 -113.57,-34.28 l -0.02,-0.01 c -16.71,-12.58 -29.56,-27.68 -38.11,-45.06 -8.55,-17.38 -12.75,-36.93 -12.74,-58.2 0,-17.74 2.57,-33.87 7.93,-48.25 7.98,-21.6 22.47,-39.03 42.44,-51.27 19.98,-12.29 45.2,-19.62 75.44,-22.62 l 63.02,-6.14 0.06,-0.01 c 12.86,-1.15 21.31,-4.54 26.02,-8.72 2.41,-2.11 4.05,-4.42 5.25,-7.31 1.19,-2.89 1.9,-6.44 1.9,-10.89 -0.02,-5.52 -1.14,-9.7 -3.12,-13.21 -2.96,-5.2 -8.28,-9.62 -17.82,-13.02 -9.46,-3.35 -22.82,-5.28 -39.76,-5.27 -22.14,0 -41.44,3.02 -57.95,8.85 -16.52,5.83 -30.31,14.42 -41.77,25.88 -1.89,1.88 -4.4,2.93 -7.07,2.93 -2.67,0 -5.18,-1.05 -7.07,-2.93 l -65.32,-65.32 c -3.9,-3.9 -3.9,-10.23 0,-14.14 24.11,-24.13 52.06,-41 83.41,-50.16 l 0.09,-0.03 c 24.88,-7.01 56.15,-10.35 94.15,-10.36 51.07,-0.01 93.51,11.07 126.37,34.07 l 0.02,0.02 c 17.57,12.34 31.11,27.62 40.07,45.58 8.98,17.95 13.36,38.42 13.36,60.95 h -10"
         style="fill:#8cb5e2;fill-opacity:1;fill-rule:nonzero;stroke:none"
         id="path32" /><path
         d="m 2137.62,1607.73 h -100.66 v 400.33 h 100.66 z m 0,467.95 h -100.66 v 81.45 h 100.66 v -81.45"
         style="fill:#8cb5e2;fill-opacity:1;fill-rule:nonzero;stroke:none"
         id="path34" /><path
         d="m 2137.62,1607.73 v 10 h -90.66 v 380.33 h 80.66 v -390.33 h 10 v 10 -10 h 9.99 v 400.33 c 0,2.63 -1.06,5.21 -2.92,7.07 -1.86,1.86 -4.44,2.93 -7.07,2.93 h -100.66 c -2.63,0 -5.21,-1.07 -7.07,-2.93 -1.86,-1.86 -2.93,-4.44 -2.93,-7.07 v -400.33 c 0,-2.63 1.07,-5.21 2.93,-7.07 1.86,-1.86 4.44,-2.93 7.07,-2.93 h 100.66 c 2.63,0 5.21,1.07 7.07,2.93 1.86,1.86 2.92,4.44 2.92,7.07 z m 0,467.95 v 10 h -90.66 v 61.45 h 80.66 v -71.45 h 10 v 10 -10 h 9.99 v 81.45 c 0,2.63 -1.06,5.21 -2.92,7.07 -1.86,1.86 -4.44,2.93 -7.07,2.93 h -100.66 c -2.63,0 -5.21,-1.07 -7.07,-2.93 -1.86,-1.86 -2.93,-4.44 -2.93,-7.07 v -81.45 c 0,-2.64 1.07,-5.22 2.93,-7.07 1.86,-1.87 4.44,-2.93 7.07,-2.93 h 100.66 c 2.63,0 5.21,1.06 7.07,2.93 1.86,1.85 2.92,4.43 2.92,7.07 h -9.99"
         style="fill:#8cb5e2;fill-opacity:1;fill-rule:nonzero;stroke:none"
         id="path36" /><path
         d="m 2743.87,2008.06 -122.18,-400.33 h -82.21 l -83.75,251.27 -83.75,-251.27 h -82.22 l -122.94,400.33 h 106.04 l 64.54,-247.42 81.44,247.42 h 73 l 82.22,-247.42 64.54,247.42 h 105.27"
         style="fill:#8cb5e2;fill-opacity:1;fill-rule:nonzero;stroke:none"
         id="path38" /><path
         d="m 2743.87,2008.06 -9.56,2.92 -120.02,-393.25 h -67.61 l -81.47,244.43 c -1.36,4.1 -5.17,6.84 -9.48,6.84 -4.32,0 -8.13,-2.74 -9.48,-6.84 l -81.48,-244.43 h -67.62 l -116.79,380.33 h 84.77 l 62.59,-239.94 c 1.12,-4.3 4.92,-7.33 9.36,-7.48 4.44,-0.14 8.42,2.66 9.82,6.88 l 79.18,240.54 h 58.54 l 79.95,-240.58 c 1.4,-4.21 5.38,-6.98 9.82,-6.84 4.43,0.15 8.22,3.18 9.35,7.48 l 62.58,239.94 h 97.55 v 10 l -9.56,2.92 9.56,-2.92 v 10 H 2638.6 c -4.56,0 -8.53,-3.06 -9.68,-7.48 l -56.01,-214.75 -71.58,215.38 c -1.36,4.1 -5.17,6.85 -9.49,6.85 h -73 c -4.31,0 -8.14,-2.77 -9.5,-6.88 l -70.83,-215.18 -55.98,214.58 c -1.15,4.42 -5.11,7.48 -9.67,7.48 h -106.04 c -3.17,0 -6.15,-1.51 -8.05,-4.06 -1.88,-2.55 -2.44,-5.84 -1.51,-8.88 L 2280.2,1604.8 c 1.29,-4.19 5.19,-7.07 9.56,-7.07 h 82.22 c 4.31,0 8.12,2.75 9.48,6.84 l 74.27,222.81 74.27,-222.81 c 1.35,-4.09 5.16,-6.84 9.48,-6.84 h 82.21 c 4.41,0 8.29,2.87 9.56,7.09 l 122.18,400.32 c 0.93,3.04 0.36,6.32 -1.52,8.87 -1.89,2.55 -4.86,4.05 -8.04,4.05 v -10"
         style="fill:#8cb5e2;fill-opacity:1;fill-rule:nonzero;stroke:none"
         id="path40" /><path
         d="m 3106.53,1607.73 h -100.66 v 242.04 c 0,25.09 -7.13,44.05 -21.39,56.86 -11.72,10.76 -26.49,16.14 -44.31,16.14 -18.34,0 -33.36,-5.38 -45.07,-16.14 -14.26,-12.81 -21.39,-31.77 -21.39,-56.86 v -242.04 h -99.89 v 400.33 h 97.58 v -36.88 c 26.13,27.66 59.43,41.49 99.89,41.49 39.45,0 70.95,-11.79 94.52,-35.35 27.13,-27.15 40.72,-65.05 40.72,-113.71 v -255.88"
         style="fill:#8cb5e2;fill-opacity:1;fill-rule:nonzero;stroke:none"
         id="path42" /><path
         d="m 3106.53,1607.73 v 10 h -90.66 v 232.04 c 0,13.49 -1.91,25.71 -5.99,36.56 -4.06,10.84 -10.37,20.26 -18.72,27.74 l -6.68,-7.44 6.76,7.37 c -13.57,12.55 -31.27,18.85 -51.07,18.77 -20.24,0.07 -38.2,-6.17 -51.84,-18.77 l 6.77,-7.37 -6.68,7.44 c -8.35,-7.48 -14.66,-16.9 -18.72,-27.74 -4.08,-10.85 -5.99,-23.07 -5.99,-36.56 v -232.04 h -79.89 v 380.33 h 77.58 v -26.88 c 0,-4.11 2.49,-7.78 6.31,-9.29 3.81,-1.52 8.14,-0.57 10.96,2.42 24.41,25.68 54.41,38.24 92.62,38.36 37.52,-0.08 65.87,-10.95 87.45,-32.42 12.5,-12.52 21.85,-27.42 28.19,-45.09 6.33,-17.67 9.6,-38.15 9.6,-61.55 v -255.88 h 10 v 10 -10 h 10 v 255.88 c 0,25.25 -3.53,48.05 -10.77,68.29 -7.24,20.23 -18.25,37.86 -32.88,52.49 -25.56,25.65 -60.22,38.37 -101.59,38.28 -42.72,0.12 -79.3,-14.98 -107.15,-44.63 l 7.26,-6.86 h 10 v 36.88 c 0,2.63 -1.06,5.21 -2.93,7.07 -1.86,1.86 -4.43,2.93 -7.07,2.93 h -97.58 c -2.63,0 -5.2,-1.07 -7.07,-2.93 -1.86,-1.86 -2.93,-4.44 -2.93,-7.07 v -400.33 c 0,-2.63 1.07,-5.21 2.93,-7.07 1.87,-1.86 4.44,-2.93 7.07,-2.93 h 99.89 c 2.63,0 5.2,1.07 7.07,2.93 1.86,1.86 2.93,4.44 2.93,7.07 v 242.04 c 0,11.61 1.66,21.41 4.7,29.52 3.08,8.11 7.46,14.58 13.37,19.9 l 0.09,0.08 c 9.79,8.91 21.87,13.43 38.3,13.5 15.85,-0.08 27.68,-4.54 37.55,-13.5 l 0.08,-0.08 c 5.91,-5.32 10.29,-11.79 13.37,-19.9 3.04,-8.11 4.7,-17.91 4.7,-29.52 v -242.04 c 0,-2.63 1.07,-5.21 2.93,-7.07 1.87,-1.86 4.44,-2.93 7.07,-2.93 h 100.66 c 2.64,0 5.2,1.07 7.07,2.93 1.86,1.86 2.93,4.44 2.93,7.07 h -10"
         style="fill:#8cb5e2;fill-opacity:1;fill-rule:nonzero;stroke:none"
         id="path44" /><path
         d="m 318.121,1100.63 c 0,19.46 -6.148,35.46 -18.441,48.02 -12.293,12.55 -29.969,18.83 -53.02,18.83 H 135.25 v -134.47 h 111.41 c 23.051,0 40.727,6.4 53.02,19.21 12.293,12.8 18.441,28.94 18.441,48.41 z m -7.683,225.91 c 0,18.94 -6.145,34.19 -18.442,45.71 -12.293,11.52 -29.715,17.29 -52.25,17.29 H 135.25 v -126.02 h 104.496 c 22.535,0 39.957,5.76 52.25,17.3 12.297,11.52 18.442,26.75 18.442,45.72 z m 114.488,-231.29 c 0,-49.69 -15.371,-88.36 -46.102,-116.031 C 348.086,951.57 307.617,937.73 257.418,937.73 H 28.4414 v 547.09 H 248.199 c 52.754,0 94.125,-13.83 124.09,-41.5 29.969,-27.66 44.953,-65.05 44.953,-112.18 0,-27.66 -7.687,-52.51 -23.054,-74.53 -12.805,-17.43 -27.661,-30.23 -44.563,-38.42 50.195,-23.56 75.301,-64.54 75.301,-122.94"
         style="fill:#3d5981;fill-opacity:1;fill-rule:nonzero;stroke:none"
         id="path46" /><path
         d="m 318.121,1100.63 h 10 c 0.094,21.53 -7.101,40.63 -21.301,55.01 -7.234,7.41 -16.14,12.97 -26.269,16.55 -10.137,3.6 -21.465,5.29 -33.891,5.29 H 135.25 c -2.633,0 -5.211,-1.07 -7.07,-2.93 -1.867,-1.87 -2.93,-4.44 -2.93,-7.07 v -134.47 c 0,-2.63 1.063,-5.2 2.93,-7.07 1.859,-1.86 4.437,-2.93 7.07,-2.93 h 111.41 c 12.445,0 23.793,1.72 33.949,5.4 10.149,3.67 19.059,9.34 26.286,16.89 14.14,14.6 21.312,33.79 21.226,55.33 h -10 -10 c -0.09,-17.4 -5.211,-30.5 -15.656,-41.47 -5.067,-5.28 -11.137,-9.2 -18.664,-11.95 -7.524,-2.72 -16.535,-4.2 -27.141,-4.2 H 145.25 v 114.47 h 101.41 c 10.625,0 19.656,-1.46 27.195,-4.13 7.551,-2.7 13.625,-6.56 18.68,-11.69 10.391,-10.74 15.492,-23.63 15.586,-41.03 z m -7.683,225.91 h 10 c 0.113,21.05 -7.184,39.63 -21.606,53.01 -7.254,6.81 -16.055,11.89 -25.98,15.16 -9.938,3.29 -20.993,4.83 -33.106,4.83 H 135.25 c -2.633,0 -5.211,-1.06 -7.07,-2.93 -1.867,-1.86 -2.93,-4.43 -2.93,-7.07 v -126.02 c 0,-2.63 1.063,-5.2 2.93,-7.07 1.859,-1.86 4.437,-2.93 7.07,-2.93 h 104.496 c 12.113,0 23.168,1.54 33.106,4.83 9.925,3.28 18.726,8.35 25.988,15.17 14.414,13.37 21.711,31.94 21.598,53.02 h -10 -10 c -0.11,-16.86 -5.106,-28.75 -15.282,-38.43 -5.035,-4.72 -11.093,-8.28 -18.59,-10.77 -7.48,-2.48 -16.402,-3.82 -26.82,-3.82 H 145.25 v 106.02 h 94.496 c 10.418,0 19.34,-1.34 26.82,-3.82 7.497,-2.48 13.555,-6.06 18.59,-10.76 10.172,-9.67 15.172,-21.59 15.282,-38.42 z m 114.488,-231.29 h -10 c 0,-23.82 -3.68,-44.62 -10.821,-62.58 -7.152,-17.97 -17.722,-33.17 -31.972,-46.01 -28.692,-25.762 -66.289,-38.871 -114.715,-38.93 H 38.4414 v 527.09 H 248.199 c 51.094,-0.05 89.559,-13.27 117.309,-38.84 13.933,-12.88 24.254,-27.82 31.211,-45.16 6.949,-17.35 10.523,-37.17 10.523,-59.68 -0.035,-25.81 -7.047,-48.39 -21.258,-68.81 l 8.204,-5.72 -8.055,5.93 c -12.028,-16.34 -25.598,-27.93 -40.867,-35.36 -3.473,-1.68 -5.664,-5.19 -5.641,-9.05 0.023,-3.86 2.254,-7.35 5.75,-8.99 23.672,-11.15 40.746,-25.93 52.199,-44.58 11.414,-18.67 17.336,-41.52 17.352,-69.31 h 10 10 c 0.015,30.61 -6.621,57.44 -20.301,79.76 -13.652,22.33 -34.23,39.81 -60.754,52.23 l -4.246,-9.05 4.359,-8.99 c 18.536,8.96 34.672,22.98 48.262,41.49 l 0.149,0.2 c 16.523,23.62 24.878,50.75 24.847,80.25 0,24.62 -3.922,47.06 -11.961,67.11 -8.019,20.05 -20.179,37.64 -36.211,52.43 -32.179,29.74 -76.457,44.19 -130.871,44.14 H 28.4414 c -2.6328,0 -5.2109,-1.06 -7.0703,-2.93 -1.8633,-1.86 -2.9297,-4.44 -2.9297,-7.07 V 937.73 c 0,-2.64 1.0664,-5.199 2.9297,-7.07 1.8594,-1.871 4.4375,-2.93 7.0703,-2.93 H 257.418 c 51.973,-0.058 95.312,14.5 128.094,44.059 16.484,14.832 28.965,32.791 37.179,53.501 8.231,20.71 12.235,44.09 12.235,69.96 h -10"
         style="fill:#3d5981;fill-opacity:1;fill-rule:nonzero;stroke:none"
         id="path48" /><path
         d="m 727.656,1175.16 c -0.515,16.39 -3.593,30.73 -9.222,43.03 -12.297,27.67 -34.579,41.49 -66.848,41.49 -32.273,0 -54.555,-13.82 -66.852,-41.49 -5.64,-12.3 -8.714,-26.64 -9.214,-43.03 z m 98.352,-68.39 H 575.52 c 0,-26.64 7.8,-48.15 23.429,-64.54 15.621,-16.39 37.004,-24.59 64.16,-24.59 35.348,0 65.567,12.55 90.668,37.66 L 814.48,996.129 C 792.449,974.102 770.938,958.48 749.938,949.25 725.855,938.5 696.656,933.121 662.344,933.121 c -123.457,0 -185.18,68.389 -185.18,205.159 0,64.03 16.137,114.49 48.406,151.37 31.243,35.35 73.246,53.02 126.016,53.02 54.289,0 97.32,-18.19 129.09,-54.55 30.215,-34.85 45.332,-80.44 45.332,-136.78 v -44.57"
         style="fill:#3d5981;fill-opacity:1;fill-rule:nonzero;stroke:none"
         id="path50" /><path
         d="m 727.656,1175.16 9.996,0.32 c -0.55,17.44 -3.843,33.14 -10.129,46.87 l -9.089,-4.16 9.14,4.06 c -6.773,15.3 -16.777,27.5 -29.801,35.56 -13.007,8.08 -28.652,11.88 -46.187,11.87 -17.531,0.01 -33.184,-3.79 -46.191,-11.87 -13.024,-8.06 -23.028,-20.26 -29.797,-35.56 l 9.136,-4.06 -9.086,4.17 c -6.308,-13.73 -9.593,-29.44 -10.125,-46.9 -0.085,-2.7 0.926,-5.32 2.817,-7.26 1.887,-1.94 4.469,-3.04 7.18,-3.04 h 152.136 c 2.711,0 5.297,1.1 7.184,3.04 1.883,1.95 2.894,4.57 2.812,7.28 l -9.996,-0.32 v 10 H 575.52 v -10 l 9.992,-0.3 c 0.472,15.32 3.332,28.3 8.312,39.16 l 0.047,0.11 c 5.527,12.36 12.809,20.91 22.07,26.69 9.278,5.74 20.907,8.86 35.645,8.86 14.738,0 26.367,-3.12 35.641,-8.86 9.261,-5.78 16.543,-14.33 22.066,-26.69 l 0.047,-0.1 c 4.973,-10.86 7.84,-23.85 8.32,-39.18 l 9.996,0.31 v 10 z m 98.352,-68.39 v 10 H 575.52 c -2.633,0 -5.211,-1.06 -7.075,-2.93 -1.863,-1.86 -2.925,-4.43 -2.925,-7.07 -0.082,-28.52 8.589,-53.07 26.195,-71.44 8.797,-9.25 19.394,-16.28 31.41,-20.88 12.02,-4.61 25.406,-6.81 39.984,-6.81 37.727,-0.1 71.047,13.74 97.743,40.59 l -7.075,7.07 -6.98,-7.16 60.703,-59.171 6.98,7.16 -7.07,7.071 c -21.398,-21.411 -42,-36.231 -61.496,-44.802 l -0.055,-0.019 c -22.453,-10.02 -50.234,-15.258 -83.515,-15.258 -29.946,0 -55.774,4.149 -77.555,12.207 -32.664,12.141 -56.437,32.641 -72.793,62.692 -16.297,30.06 -24.844,70.07 -24.832,120.26 0.039,62.43 15.633,110.13 45.934,144.78 l -0.035,-0.04 c 14.707,16.63 31.707,28.91 51.324,37.18 19.613,8.25 41.922,12.47 67.199,12.47 26.035,0 48.977,-4.35 69.098,-12.85 20.117,-8.52 37.496,-21.17 52.461,-38.28 l -0.024,0.03 c 28.383,-32.8 42.832,-75.62 42.887,-130.23 v -44.57 h 10 v 10 -10 h 10 v 44.57 c 0.051,58.07 -15.735,106.43 -47.781,143.33 l -0.024,0.02 c -16.801,19.26 -36.82,33.88 -59.734,43.55 -22.91,9.69 -48.629,14.44 -76.883,14.43 -27.488,0.01 -52.566,-4.61 -74.961,-14.04 -22.387,-9.4 -42.012,-23.63 -58.551,-42.36 l -0.027,-0.04 c -34.242,-39.1 -50.922,-92.32 -50.883,-157.95 0.004,-34.94 3.93,-65.81 11.996,-92.64 12.039,-40.2 33.75,-71.41 64.801,-91.992 31.035,-20.628 70.746,-30.539 118.383,-30.527 35.344,0 65.957,5.527 91.672,17 l -0.055,-0.019 c 22.504,9.898 44.93,26.296 67.594,48.957 1.886,1.882 2.941,4.461 2.925,7.14 -0.015,2.66 -1.105,5.221 -3.019,7.091 l -60.703,59.17 c -3.91,3.82 -10.188,3.78 -14.047,-0.09 -23.512,-23.37 -50.633,-34.63 -83.602,-34.73 -12.582,0 -23.464,1.9 -32.828,5.49 -9.367,3.59 -17.273,8.86 -24.09,16 -13.664,14.41 -20.593,32.89 -20.671,57.64 h -10 v -10 h 250.488 c 2.629,0 5.207,1.07 7.066,2.93 1.864,1.87 2.934,4.44 2.934,7.07 h -10"
         style="fill:#3d5981;fill-opacity:1;fill-rule:nonzero;stroke:none"
         id="path52" /><path
         d="M 1208.64,1338.06 1061.88,937.73 H 983.516 L 835.977,1338.06 H 941.25 l 81.45,-247.42 80.68,247.42 h 105.26"
         style="fill:#3d5981;fill-opacity:1;fill-rule:nonzero;stroke:none"
         id="path54" /><path
         d="m 1208.64,1338.06 -9.39,3.44 -144.35,-393.77 h -64.412 l -140.172,380.33 h 83.7 l 79.184,-240.54 c 1.35,-4.11 5.19,-6.89 9.51,-6.88 4.32,0.01 8.15,2.79 9.49,6.9 l 78.43,240.52 h 98.01 v 10 l -9.39,3.44 9.39,-3.44 v 10 h -105.26 c -4.32,0 -8.17,-2.79 -9.51,-6.9 l -71.22,-218.4 -71.904,218.42 c -1.348,4.11 -5.18,6.88 -9.496,6.88 H 835.977 c -3.278,0 -6.329,-1.6 -8.204,-4.29 -1.875,-2.68 -2.312,-6.1 -1.179,-9.17 L 974.133,934.27 c 1.449,-3.93 5.183,-6.54 9.383,-6.54 h 78.364 c 4.2,0 7.95,2.622 9.39,6.559 l 146.76,400.321 c 1.13,3.08 0.69,6.49 -1.19,9.18 -1.87,2.68 -4.92,4.27 -8.2,4.27 v -10"
         style="fill:#3d5981;fill-opacity:1;fill-rule:nonzero;stroke:none"
         id="path56" /><path
         d="m 1441.46,1085.26 v 21.51 h -78.7 c -37.17,0 -55.77,-15.11 -55.77,-45.33 0,-30.73 19.1,-46.1 57.31,-46.1 34.12,0 56.77,8.45 67.99,25.36 6.11,9.22 9.17,24.07 9.17,44.56 z m 100.66,-147.53 h -97.59 v 34.579 c -25.61,-25.618 -58.39,-38.418 -98.35,-38.418 -45.08,0 -78.89,11.531 -101.42,34.578 -22.55,23.051 -33.81,53.261 -33.81,90.671 0,33.81 11.61,61.59 34.84,83.37 23.23,21.76 57.05,32.65 101.48,32.65 h 94.19 v 19.98 c 0,42 -24.75,63.01 -74.26,63.01 -32.16,0 -57.68,-11.02 -76.57,-33.05 l -63.54,62.24 c 18.95,21.01 39.69,35.61 62.24,43.8 20.47,7.69 47.89,11.53 82.21,11.53 113.72,0 170.58,-47.14 170.58,-141.38 V 937.73"
         style="fill:#3d5981;fill-opacity:1;fill-rule:nonzero;stroke:none"
         id="path58" /><path
         d="m 1441.46,1085.26 h 10 v 21.51 c 0,2.64 -1.06,5.21 -2.92,7.07 -1.87,1.87 -4.44,2.93 -7.08,2.93 h -78.7 c -19.85,-0.02 -36.17,-3.93 -48.13,-13.57 -5.93,-4.8 -10.5,-11.02 -13.4,-18.14 -2.92,-7.11 -4.24,-15.04 -4.24,-23.62 0,-8.71 1.35,-16.77 4.34,-23.99 4.44,-10.88 12.85,-19.48 23.7,-24.63 10.86,-5.23 23.95,-7.46 39.27,-7.48 17.88,0.01 33.2,2.18 46.08,6.97 12.84,4.76 23.34,12.41 30.24,22.86 7.9,12.16 10.76,28.63 10.84,50.09 h -10 -10 c 0.09,-19.52 -3.18,-32.75 -7.51,-39.03 -4.31,-6.46 -10.75,-11.49 -20.56,-15.18 -9.78,-3.66 -22.85,-5.72 -39.09,-5.71 -17.85,-0.03 -29.83,3.7 -36.71,9.31 -3.5,2.84 -5.97,6.15 -7.78,10.45 -1.78,4.3 -2.82,9.68 -2.82,16.34 0,6.53 1.01,11.83 2.74,16.04 2.65,6.28 6.63,10.52 13.43,13.93 6.8,3.34 16.66,5.37 29.6,5.36 h 68.7 v -11.51 z m 100.66,-147.53 v 10 h -87.59 v 24.579 c 0,4.043 -2.44,7.703 -6.17,9.242 -3.74,1.551 -8.04,0.687 -10.9,-2.172 -23.8,-23.68 -53.41,-35.391 -91.28,-35.488 -21.69,0 -40.33,2.789 -55.94,8.109 -15.62,5.34 -28.23,13.141 -38.34,23.461 -20.54,21.109 -30.86,48.219 -30.95,83.679 0.11,31.54 10.44,56.01 31.68,76.07 10.45,9.79 23.31,17.21 39.02,22.27 15.68,5.06 34.21,7.68 55.62,7.68 h 94.19 c 2.64,0 5.21,1.07 7.08,2.93 1.86,1.87 2.92,4.43 2.92,7.07 v 19.98 c 0,11.48 -1.68,21.93 -5.33,31.22 -5.41,13.97 -15.58,25.02 -29.14,31.84 -13.56,6.87 -30.19,9.94 -49.79,9.95 -17.21,0 -33.05,-2.96 -47.22,-9.08 -14.17,-6.12 -26.59,-15.37 -36.94,-27.45 l 7.59,-6.52 7,7.15 -63.54,62.24 -7,-7.15 7.43,-6.69 c 18.07,20.02 37.43,33.53 58.22,41.09 l 0.1,0.04 c 18.75,7.07 45.12,10.91 78.7,10.89 55.57,0.02 95.78,-11.61 121.56,-33.04 12.94,-10.75 22.53,-23.98 29.08,-40.22 6.53,-16.24 9.94,-35.56 9.94,-58.12 V 937.73 h 10 v 10 -10 h 10 v 263.56 c 0,24.56 -3.7,46.47 -11.38,65.58 -11.47,28.7 -32.22,50.74 -60.8,64.87 -28.59,14.19 -64.73,20.92 -108.4,20.93 -35.07,-0.02 -63.52,-3.86 -85.73,-12.17 l 3.52,-9.36 -3.42,9.4 c -24.3,-8.83 -46.43,-24.52 -66.25,-46.5 -3.6,-3.99 -3.41,-10.08 0.43,-13.84 l 63.55,-62.25 c 1.99,-1.94 4.65,-2.95 7.43,-2.84 2.78,0.12 5.34,1.37 7.16,3.48 8.54,9.95 18.32,17.21 29.68,22.12 11.34,4.89 24.34,7.44 39.29,7.44 23.44,0.02 39.49,-5.05 49.23,-13.38 4.92,-4.2 8.53,-9.25 11.08,-15.72 2.54,-6.46 3.95,-14.39 3.95,-23.91 v -9.98 h -84.19 c -23.03,0 -43.62,-2.81 -61.75,-8.64 -18.12,-5.83 -33.79,-14.74 -46.56,-26.72 -25.23,-23.49 -38.13,-54.59 -38.01,-90.66 -0.09,-39.35 12.11,-72.671 36.66,-97.66 12.43,-12.73 28,-22.218 46.18,-28.41 18.2,-6.199 39.01,-9.179 62.39,-9.179 42.06,-0.102 77.99,13.781 105.42,41.347 l -7.07,7.071 h -10 V 937.73 c 0,-2.64 1.07,-5.199 2.93,-7.07 1.86,-1.871 4.44,-2.93 7.07,-2.93 h 97.59 c 2.63,0 5.21,1.059 7.07,2.93 1.86,1.871 2.93,4.43 2.93,7.07 h -10"
         style="fill:#3d5981;fill-opacity:1;fill-rule:nonzero;stroke:none"
         id="path60" /><path
         d="m 1952.43,937.73 h -100.65 v 242.04 c 0,25.09 -7.14,44.05 -21.4,56.86 -11.72,10.76 -26.48,16.14 -44.31,16.14 -18.34,0 -33.36,-5.38 -45.06,-16.14 -14.26,-12.81 -21.4,-31.77 -21.4,-56.86 V 937.73 h -99.88 v 400.33 h 97.57 v -36.88 c 26.14,27.66 59.43,41.49 99.9,41.49 39.44,0 70.94,-11.79 94.51,-35.35 27.14,-27.16 40.72,-65.06 40.72,-113.72 V 937.73"
         style="fill:#3d5981;fill-opacity:1;fill-rule:nonzero;stroke:none"
         id="path62" /><path
         d="m 1952.43,937.73 v 10 h -90.65 v 232.04 c 0,13.49 -1.92,25.71 -5.99,36.55 -4.07,10.84 -10.37,20.27 -18.73,27.75 l -6.68,-7.44 6.76,7.36 c -13.57,12.56 -31.27,18.86 -51.07,18.78 -20.24,0.07 -38.2,-6.16 -51.83,-18.78 l 6.77,-7.36 -6.68,7.44 c -8.36,-7.48 -14.66,-16.91 -18.73,-27.75 -4.08,-10.84 -5.99,-23.06 -5.99,-36.55 V 947.73 h -79.88 v 380.33 h 77.57 v -26.88 c 0,-4.11 2.49,-7.78 6.31,-9.29 3.82,-1.52 8.14,-0.57 10.97,2.42 24.4,25.68 54.4,38.24 92.62,38.36 37.52,-0.08 65.86,-10.95 87.44,-32.42 12.5,-12.52 21.85,-27.42 28.19,-45.1 6.33,-17.67 9.6,-38.14 9.6,-61.55 V 937.73 h 10 v 10 -10 h 10 v 255.87 c 0,25.25 -3.52,48.06 -10.77,68.3 -7.24,20.23 -18.24,37.86 -32.88,52.49 -25.55,25.65 -60.22,38.37 -101.58,38.28 -42.73,0.12 -79.31,-14.98 -107.17,-44.63 l 7.27,-6.86 h 10 v 36.88 c 0,2.63 -1.06,5.21 -2.92,7.07 -1.87,1.86 -4.44,2.93 -7.08,2.93 h -97.57 c -2.64,0 -5.21,-1.07 -7.07,-2.93 -1.87,-1.86 -2.93,-4.44 -2.93,-7.07 V 937.73 c 0,-2.64 1.07,-5.199 2.93,-7.07 1.86,-1.871 4.43,-2.93 7.07,-2.93 h 99.88 c 2.63,0 5.21,1.059 7.07,2.93 1.86,1.871 2.93,4.43 2.93,7.07 v 242.04 c 0,11.6 1.65,21.41 4.71,29.51 3.07,8.12 7.46,14.58 13.37,19.9 l 0.08,0.09 c 9.79,8.9 21.87,13.43 38.3,13.5 15.85,-0.08 27.68,-4.54 37.55,-13.5 l 0.08,-0.09 c 5.9,-5.32 10.3,-11.78 13.37,-19.9 3.05,-8.1 4.71,-17.91 4.71,-29.51 V 937.73 c 0,-2.64 1.07,-5.199 2.93,-7.07 1.86,-1.871 4.44,-2.93 7.07,-2.93 h 100.65 c 2.63,0 5.21,1.059 7.07,2.93 1.86,1.871 2.93,4.43 2.93,7.07 h -10"
         style="fill:#3d5981;fill-opacity:1;fill-rule:nonzero;stroke:none"
         id="path64" /><path
         d="m 412.633,436.012 c -9.219,-55.84 -32.535,-98.883 -69.922,-129.09 -35.348,-29.203 -79.148,-43.801 -131.395,-43.801 -58.394,0 -107.57,19.981 -147.5269,59.93 -24.5899,24.59 -40.4727,56.097 -47.6407,94.508 C 12.0391,440.102 10,481.34 10,541.281 c 0,59.93 2.0391,101.16 6.1484,123.707 7.168,38.41 23.0508,69.922 47.6407,94.512 39.9569,39.949 89.1329,59.93 147.5269,59.93 52.754,0 97.2,-14.86 133.313,-44.571 36.113,-29.718 58.785,-72.488 68.004,-128.32 h -108.34 c -12.813,51.742 -43.547,77.609 -92.207,77.609 -32.273,0 -57.125,-12.039 -74.531,-36.117 -13.832,-19.472 -20.746,-68.39 -20.746,-146.75 0,-42.531 0.5,-69.152 1.535,-79.922 3.574,-34.32 12.027,-59.16 25.355,-74.531 16.906,-18.949 39.692,-28.43 68.387,-28.43 48.66,0 79.394,25.864 92.207,77.614 h 108.34"
         style="fill:#8cb5e2;fill-opacity:1;fill-rule:nonzero;stroke:none"
         id="path66" /><path
         d="m 412.633,436.012 -9.867,1.629 c -8.981,-54.02 -31.071,-94.371 -66.34,-122.95 l -0.082,-0.062 c -33.477,-27.59 -74.606,-41.449 -125.028,-41.508 -56.125,0.098 -102.171,18.859 -140.4566,57 -23.0508,23.098 -37.9883,52.488 -44.8828,89.277 l 0.0078,-0.039 C 22.0977,440.5 19.9766,481.648 20,541.281 c -0.0234,59.629 2.0977,100.758 5.9844,121.918 l -0.0078,-0.051 c 6.8945,36.793 21.832,66.18 44.8828,89.282 38.2856,38.14 84.3316,56.898 140.4566,57 50.911,-0.059 92.7,-14.168 126.961,-42.301 33.973,-28 55.5,-68.129 64.489,-122.219 l 9.867,1.629 v 10 h -108.34 v -10 l 9.707,2.402 c -6.734,27.258 -18.516,48.797 -35.93,63.457 -17.386,14.68 -39.941,21.801 -65.984,21.75 -17.367,0.012 -33.238,-3.269 -47.203,-10.027 -13.965,-6.75 -25.883,-16.992 -35.434,-30.23 l -0.051,-0.071 c -8.597,-12.332 -13.652,-30.461 -17.308,-55.679 -3.555,-25.18 -5.277,-57.379 -5.281,-96.86 0,-21.312 0.125,-38.652 0.379,-52.07 0.261,-13.441 0.632,-22.852 1.203,-28.801 l 0.007,-0.082 c 3.743,-35.387 12.325,-62.117 27.75,-80.047 l 0.086,-0.109 c 9.379,-10.531 20.621,-18.594 33.399,-23.891 12.773,-5.32 27.012,-7.883 42.453,-7.883 26.043,-0.039 48.594,7.063 65.984,21.75 17.414,14.661 29.196,36.204 35.93,63.461 l -9.707,2.403 v -10 h 108.34 v 10 l -9.867,1.629 9.867,-1.629 v 10 h -108.34 c -4.59,0 -8.605,-3.141 -9.707,-7.602 -6.078,-24.488 -16.07,-41.738 -29.395,-52.949 -13.343,-11.191 -30.488,-17.012 -53.105,-17.063 -13.258,0 -24.762,2.18 -34.777,6.34 -10.012,4.184 -18.618,10.321 -26.149,18.75 l -7.461,-6.66 7.555,6.551 c -11.234,12.82 -19.555,35.762 -22.965,69.019 l 0.012,-0.078 c -0.469,4.809 -0.863,14.09 -1.113,27.282 -0.254,13.218 -0.379,30.449 -0.379,51.679 -0.008,38.879 1.726,70.328 5.086,94.059 3.257,23.711 8.578,39.762 13.812,46.898 l -0.047,-0.066 c 7.856,10.84 17.067,18.668 27.949,23.949 10.879,5.258 23.575,8.02 38.477,8.027 22.617,-0.046 39.762,-5.867 53.105,-17.046 13.325,-11.223 23.317,-28.481 29.395,-52.961 1.102,-4.461 5.117,-7.602 9.707,-7.602 h 108.34 c 2.93,0 5.726,1.301 7.625,3.531 1.894,2.231 2.715,5.211 2.242,8.102 -9.453,57.566 -33.266,102.988 -71.52,134.406 -37.96,31.293 -85.066,46.91 -139.664,46.852 C 150.648,829.531 98.3438,808.328 56.7188,766.57 30.5898,740.48 13.7617,706.871 6.32031,666.82 L 6.30859,666.77 C 1.98047,642.84 0.0234375,601.512 0,541.281 0.0234375,481.039 1.98047,439.699 6.30859,415.77 l 0.01172,-0.04 c 7.44139,-40.05 24.26949,-73.66 50.39849,-99.75 41.625,-41.761 93.9292,-62.96 154.5972,-62.859 54.075,-0.062 100.539,15.277 137.762,46.09 l -6.367,7.711 6.281,-7.774 C 388.5,331 413.043,376.719 422.5,434.379 c 0.473,2.891 -0.348,5.871 -2.242,8.109 -1.899,2.223 -4.695,3.524 -7.625,3.524 v -10"
         style="fill:#8cb5e2;fill-opacity:1;fill-rule:nonzero;stroke:none"
         id="path68" /><path
         d="m 689.242,468.281 c 0,49.18 -7.597,81.438 -22.797,96.809 -11.66,11.781 -27.109,17.68 -46.355,17.68 -18.742,0 -33.942,-5.899 -45.586,-17.68 -15.195,-15.371 -22.801,-47.629 -22.801,-96.809 0,-49.691 7.606,-82.222 22.801,-97.582 11.644,-11.801 26.844,-17.679 45.586,-17.679 19.246,0 34.695,5.878 46.355,17.679 15.2,15.36 22.797,47.891 22.797,97.582 z m 100.66,0 c 0,-38.422 -3.078,-68.902 -9.222,-91.441 -6.66,-25.11 -18.703,-46.621 -36.114,-64.539 -31.25,-32.789 -72.746,-49.18 -124.476,-49.18 -51.227,0 -92.469,16.391 -123.707,49.18 -17.422,17.918 -29.465,39.429 -36.113,64.539 -6.149,22.539 -9.219,53.019 -9.219,91.441 0,71.707 15.367,123.707 46.097,155.981 30.739,32.269 71.715,48.41 122.942,48.41 51.73,0 92.973,-16.141 123.711,-48.41 30.734,-32.274 46.101,-84.274 46.101,-155.981"
         style="fill:#8cb5e2;fill-opacity:1;fill-rule:nonzero;stroke:none"
         id="path70" /><path
         d="m 689.242,468.281 h 10 c -0.008,25.098 -1.914,46.141 -5.965,63.379 -4.078,17.192 -10.246,30.82 -19.722,40.469 -13.598,13.84 -32.242,20.742 -53.465,20.641 -20.789,0.101 -39.176,-6.848 -52.695,-20.641 -9.481,-9.649 -15.649,-23.277 -19.723,-40.469 -4.051,-17.238 -5.961,-38.281 -5.969,-63.379 0.008,-25.359 1.914,-46.582 5.965,-63.941 4.074,-17.309 10.23,-31 19.727,-40.668 13.519,-13.82 31.918,-20.742 52.695,-20.652 21.219,-0.09 39.867,6.769 53.469,20.652 9.492,9.668 15.644,23.359 19.722,40.668 4.047,17.359 5.953,38.582 5.961,63.941 h -10 -10 c 0.004,-24.332 -1.883,-44.222 -5.433,-59.39 -3.528,-15.211 -8.77,-25.469 -14.473,-31.161 -9.723,-9.718 -21.973,-14.609 -39.246,-14.71 -16.707,0.101 -28.707,4.941 -38.473,14.699 -5.711,5.703 -10.949,15.961 -14.472,31.172 -3.555,15.168 -5.45,35.058 -5.442,59.39 -0.008,24.071 1.887,43.758 5.438,58.797 3.519,15.063 8.754,25.262 14.468,30.981 9.774,9.761 21.786,14.613 38.481,14.711 17.269,-0.098 29.523,-5 39.25,-14.711 5.719,-5.719 10.949,-15.918 14.469,-30.981 3.55,-15.039 5.437,-34.726 5.433,-58.797 z m 100.66,0 h -10 c 0.016,-37.871 -3.082,-67.652 -8.871,-88.812 l -0.019,-0.059 c -6.278,-23.59 -17.403,-43.43 -33.617,-60.14 l -0.071,-0.071 C 707.969,288.531 669.77,273.23 620.09,273.121 570.938,273.23 532.992,288.5 503.621,319.199 l -0.07,0.071 c -16.223,16.71 -27.352,36.55 -33.613,60.128 l -0.02,0.071 c -5.793,21.16 -8.883,50.941 -8.867,88.812 -0.004,35.141 3.777,65.141 11.113,89.949 7.34,24.809 18.152,44.348 32.227,59.141 28.828,30.129 66.507,45.188 115.699,45.301 49.719,-0.113 87.664,-15.192 116.469,-45.301 14.078,-14.793 24.886,-34.332 32.23,-59.141 7.332,-24.808 11.117,-54.808 11.113,-89.949 h 10 10 c -0.004,36.559 -3.902,68.418 -11.933,95.61 -8.028,27.179 -20.27,49.781 -36.93,67.269 -32.672,34.418 -77.207,51.621 -130.949,51.512 -53.266,0.109 -97.535,-17.113 -130.184,-51.512 -16.66,-17.488 -28.894,-40.09 -36.922,-67.269 -8.035,-27.192 -11.929,-59.051 -11.933,-95.61 0.012,-38.972 3.066,-70.152 9.57,-94.07 l -0.019,0.07 c 7.035,-26.633 19.988,-49.82 38.613,-68.953 l 7.168,6.973 -7.242,-6.891 c 33.109,-34.898 77.644,-52.398 130.949,-52.289 53.781,-0.109 98.57,17.359 131.719,52.289 l -0.071,-0.082 c 18.61,19.133 31.563,42.32 38.61,68.942 l -0.02,-0.059 c 6.504,23.918 9.559,55.098 9.574,94.07 h -10"
         style="fill:#8cb5e2;fill-opacity:1;fill-rule:nonzero;stroke:none"
         id="path72" /><path
         d="m 1421.51,267.73 h -100.66 v 242.04 c 0,25.089 -7.09,44.05 -21.26,56.859 -11.65,10.762 -26.33,16.141 -44.05,16.141 -17.72,0 -32.41,-5.129 -44.05,-15.372 -14.69,-12.808 -22.03,-31.25 -22.03,-55.32 V 267.73 H 1088.8 v 242.04 c 0,25.089 -7.18,44.05 -21.51,56.859 -11.79,10.762 -26.65,16.141 -44.57,16.141 -18.44,0 -33.548,-5.379 -45.337,-16.141 -14.348,-12.809 -21.516,-31.77 -21.516,-56.859 V 267.73 h -99.883 v 400.321 h 97.579 V 631.18 c 26.632,27.648 59.947,41.492 99.897,41.492 46.1,0 81.44,-16.902 106.03,-50.711 32.28,33.809 72.23,50.711 119.87,50.711 42,0 74.78,-11.793 98.35,-35.352 29.2,-29.199 43.8,-67.109 43.8,-113.718 V 267.73"
         style="fill:#8cb5e2;fill-opacity:1;fill-rule:nonzero;stroke:none"
         id="path74" /><path
         d="m 1421.51,267.73 v 10 h -90.66 v 232.04 c 0,13.48 -1.9,25.691 -5.95,36.531 -4.04,10.84 -10.3,20.258 -18.61,27.75 l -6.7,-7.422 6.79,7.34 c -13.5,12.57 -31.14,18.883 -50.84,18.801 -19.6,0.07 -37.12,-5.879 -50.65,-17.86 l 0.03,0.031 c -8.53,-7.421 -15.03,-16.66 -19.25,-27.281 -4.22,-10.621 -6.21,-22.539 -6.21,-35.582 V 277.73 h -80.66 v 232.04 c 0,13.492 -1.92,25.718 -6.03,36.57 -4.09,10.851 -10.43,20.269 -18.82,27.75 l -6.66,-7.461 6.74,7.383 c -13.65,12.547 -31.42,18.84 -51.31,18.758 -20.34,0.07 -38.365,-6.149 -52.079,-18.758 l 6.742,-7.383 -6.66,7.461 c -8.399,-7.481 -14.743,-16.91 -18.828,-27.75 -4.106,-10.852 -6.028,-23.078 -6.028,-36.57 V 277.73 h -79.883 v 380.321 h 77.579 V 631.18 c 0,-4.071 2.484,-7.758 6.261,-9.282 3.781,-1.519 8.114,-0.597 10.942,2.34 24.953,25.774 55.034,38.321 92.694,38.434 21.84,-0.012 40.63,-3.981 56.77,-11.703 16.13,-7.731 29.74,-19.199 41.18,-34.891 1.74,-2.398 4.45,-3.898 7.41,-4.098 2.97,-0.199 5.86,0.93 7.9,3.071 30.65,31.949 67.36,47.5 112.64,47.621 20.07,0 37.59,-2.82 52.7,-8.25 15.12,-5.453 27.85,-13.461 38.58,-24.172 27.21,-27.32 40.78,-62.078 40.87,-106.648 V 267.73 h 10 v 10 -10 h 10 v 255.872 c 0.1,48.648 -15.53,89.718 -46.72,120.789 -12.84,12.839 -28.29,22.507 -45.96,28.847 -17.68,6.364 -37.55,9.434 -59.47,9.434 -50,0.117 -93.2,-18.133 -127.1,-53.813 l 7.23,-6.898 8.09,5.879 c -13.15,18.109 -29.51,32 -48.72,41.18 -19.22,9.191 -41.14,13.66 -65.4,13.652 -42.25,0.109 -78.788,-15 -107.097,-44.563 l 7.2,-6.929 h 10 v 36.871 c 0,2.64 -1.067,5.211 -2.926,7.07 -1.864,1.867 -4.442,2.93 -7.074,2.93 h -97.579 c -2.629,0 -5.207,-1.063 -7.066,-2.93 -1.867,-1.859 -2.934,-4.43 -2.934,-7.07 V 267.73 c 0,-2.64 1.071,-5.199 2.934,-7.07 1.859,-1.871 4.437,-2.93 7.066,-2.93 h 99.883 c 2.633,0 5.211,1.059 7.071,2.93 1.863,1.871 2.929,4.43 2.929,7.07 v 242.04 c 0,11.601 1.668,21.402 4.735,29.492 3.082,8.117 7.496,14.578 13.441,19.91 l 0.082,0.066 c 9.859,8.922 22.045,13.461 38.595,13.532 15.96,-0.079 27.9,-4.551 37.82,-13.532 l 0.09,-0.066 c 5.94,-5.332 10.35,-11.793 13.44,-19.91 3.06,-8.09 4.73,-17.891 4.73,-29.492 V 267.73 c 0,-2.64 1.07,-5.199 2.93,-7.07 1.86,-1.871 4.44,-2.93 7.07,-2.93 h 100.66 c 2.63,0 5.21,1.059 7.07,2.93 1.86,1.871 2.93,4.43 2.93,7.07 v 244.348 c 0,11.024 1.68,20.363 4.8,28.184 3.13,7.828 7.64,14.207 13.81,19.597 l 0.03,0.032 c 9.75,8.5 21.61,12.808 37.44,12.879 15.74,-0.079 27.46,-4.532 37.26,-13.489 l 0.09,-0.07 c 5.86,-5.32 10.23,-11.781 13.28,-19.91 3.03,-8.11 4.68,-17.922 4.68,-29.531 V 267.73 c 0,-2.64 1.07,-5.199 2.93,-7.07 1.86,-1.871 4.44,-2.93 7.07,-2.93 h 100.66 c 2.64,0 5.21,1.059 7.07,2.93 1.86,1.871 2.93,4.43 2.93,7.07 h -10"
         style="fill:#8cb5e2;fill-opacity:1;fill-rule:nonzero;stroke:none"
         id="path76" /><path
         d="m 2065.41,267.73 h -100.66 v 242.04 c 0,25.089 -7.09,44.05 -21.26,56.859 -11.65,10.762 -26.33,16.141 -44.06,16.141 -17.71,0 -32.4,-5.129 -44.04,-15.372 -14.7,-12.808 -22.03,-31.25 -22.03,-55.32 V 267.73 H 1732.7 v 242.04 c 0,25.089 -7.18,44.05 -21.52,56.859 -11.79,10.762 -26.64,16.141 -44.56,16.141 -18.45,0 -33.55,-5.379 -45.34,-16.141 -14.35,-12.809 -21.51,-31.77 -21.51,-56.859 V 267.73 h -99.89 v 400.321 h 97.58 V 631.18 c 26.63,27.648 59.94,41.492 99.89,41.492 46.11,0 81.45,-16.902 106.04,-50.711 32.27,33.809 72.23,50.711 119.86,50.711 42,0 74.79,-11.793 98.36,-35.352 29.2,-29.199 43.8,-67.109 43.8,-113.718 V 267.73"
         style="fill:#8cb5e2;fill-opacity:1;fill-rule:nonzero;stroke:none"
         id="path78" /><path
         d="m 2065.41,267.73 v 10 h -90.66 v 232.04 c 0,13.48 -1.9,25.691 -5.96,36.531 -4.03,10.84 -10.29,20.258 -18.6,27.75 l -6.7,-7.422 6.78,7.34 c -13.5,12.57 -31.13,18.883 -50.84,18.801 -19.6,0.07 -37.11,-5.879 -50.65,-17.86 l 0.04,0.031 c -8.53,-7.421 -15.04,-16.66 -19.25,-27.281 -4.22,-10.621 -6.21,-22.539 -6.21,-35.582 V 277.73 h -80.66 v 232.04 c 0,13.492 -1.93,25.718 -6.03,36.57 -4.09,10.851 -10.43,20.269 -18.83,27.75 l -6.66,-7.461 6.74,7.383 c -13.64,12.547 -31.42,18.84 -51.3,18.758 -20.34,0.07 -38.37,-6.149 -52.08,-18.758 l 6.74,-7.383 -6.66,7.461 c -8.4,-7.481 -14.74,-16.91 -18.83,-27.75 -4.11,-10.852 -6.02,-23.078 -6.02,-36.57 V 277.73 h -79.89 v 380.321 h 77.58 V 631.18 c 0,-4.071 2.48,-7.758 6.26,-9.282 3.78,-1.519 8.12,-0.597 10.94,2.34 24.95,25.774 55.04,38.321 92.69,38.434 21.84,-0.012 40.64,-3.981 56.78,-11.703 16.12,-7.731 29.73,-19.199 41.17,-34.891 1.75,-2.398 4.46,-3.898 7.42,-4.098 2.96,-0.199 5.85,0.93 7.9,3.071 30.64,31.949 67.36,47.5 112.63,47.621 20.08,0 37.6,-2.82 52.71,-8.25 15.11,-5.453 27.84,-13.461 38.58,-24.172 27.21,-27.32 40.78,-62.078 40.87,-106.648 V 267.73 h 10 v 10 -10 h 10 v 255.872 c 0.09,48.648 -15.54,89.718 -46.73,120.789 -12.84,12.839 -28.28,22.507 -45.96,28.847 -17.67,6.364 -37.54,9.434 -59.47,9.434 -50,0.117 -93.19,-18.133 -127.09,-53.813 l 7.23,-6.898 8.08,5.879 c -13.14,18.109 -29.5,32 -48.72,41.18 -19.21,9.191 -41.13,13.66 -65.4,13.652 -42.25,0.109 -78.78,-15 -107.09,-44.563 l 7.2,-6.929 h 10 v 36.871 c 0,2.64 -1.07,5.211 -2.93,7.07 -1.86,1.867 -4.44,2.93 -7.07,2.93 h -97.58 c -2.63,0 -5.21,-1.063 -7.07,-2.93 -1.86,-1.859 -2.93,-4.43 -2.93,-7.07 V 267.73 c 0,-2.64 1.07,-5.199 2.93,-7.07 1.86,-1.871 4.44,-2.93 7.07,-2.93 h 99.89 c 2.63,0 5.21,1.059 7.07,2.93 1.86,1.871 2.93,4.43 2.93,7.07 v 242.04 c 0,11.601 1.66,21.402 4.73,29.492 3.08,8.117 7.49,14.578 13.44,19.91 l 0.08,0.066 c 9.86,8.922 22.05,13.461 38.6,13.532 15.96,-0.079 27.89,-4.551 37.82,-13.532 l 0.08,-0.066 c 5.94,-5.332 10.36,-11.793 13.44,-19.91 3.07,-8.09 4.74,-17.891 4.74,-29.492 V 267.73 c 0,-2.64 1.06,-5.199 2.93,-7.07 1.86,-1.871 4.43,-2.93 7.07,-2.93 h 100.66 c 2.63,0 5.21,1.059 7.07,2.93 1.86,1.871 2.93,4.43 2.93,7.07 v 244.348 c 0,11.024 1.68,20.363 4.79,28.184 3.13,7.828 7.65,14.207 13.81,19.597 l 0.04,0.032 c 9.74,8.5 21.6,12.808 37.43,12.879 15.75,-0.079 27.47,-4.532 37.27,-13.489 l 0.08,-0.07 c 5.87,-5.32 10.23,-11.781 13.28,-19.91 3.04,-8.11 4.69,-17.922 4.69,-29.531 V 267.73 c 0,-2.64 1.07,-5.199 2.93,-7.07 1.86,-1.871 4.43,-2.93 7.07,-2.93 h 100.66 c 2.63,0 5.21,1.059 7.07,2.93 1.86,1.871 2.93,4.43 2.93,7.07 h -10"
         style="fill:#8cb5e2;fill-opacity:1;fill-rule:nonzero;stroke:none"
         id="path80" /><path
         d="M 2243.66,267.73 H 2143 v 400.321 h 100.66 z m 0,467.942 H 2143 v 81.457 h 100.66 v -81.457"
         style="fill:#8cb5e2;fill-opacity:1;fill-rule:nonzero;stroke:none"
         id="path82" /><path
         d="m 2243.66,267.73 v 10 H 2153 v 380.321 h 80.66 V 267.73 h 10 v 10 -10 h 10 v 400.321 c 0,2.64 -1.07,5.211 -2.93,7.07 -1.87,1.867 -4.44,2.93 -7.07,2.93 H 2143 c -2.63,0 -5.21,-1.063 -7.07,-2.93 -1.86,-1.859 -2.93,-4.43 -2.93,-7.07 V 267.73 c 0,-2.64 1.07,-5.199 2.93,-7.07 1.86,-1.871 4.44,-2.93 7.07,-2.93 h 100.66 c 2.63,0 5.2,1.059 7.07,2.93 1.86,1.871 2.93,4.43 2.93,7.07 z m 0,467.942 v 10 H 2153 v 61.457 h 80.66 v -71.457 h 10 v 10 -10 h 10 v 81.457 c 0,2.633 -1.07,5.199 -2.93,7.07 -1.87,1.86 -4.44,2.93 -7.07,2.93 H 2143 c -2.63,0 -5.21,-1.07 -7.07,-2.93 -1.86,-1.871 -2.93,-4.437 -2.93,-7.07 v -81.457 c 0,-2.641 1.07,-5.211 2.93,-7.07 1.86,-1.872 4.44,-2.93 7.07,-2.93 h 100.66 c 2.63,0 5.2,1.058 7.07,2.93 1.86,1.859 2.93,4.429 2.93,7.07 h -10"
         style="fill:#8cb5e2;fill-opacity:1;fill-rule:nonzero;stroke:none"
         id="path84" /><path
         d="m 2627.85,393.75 c 0,-42.52 -16.41,-75.309 -49.18,-98.352 -30.74,-21.519 -70.96,-32.277 -120.64,-32.277 -37.4,0 -67.88,3.34 -91.43,9.988 -29.72,8.7 -56.1,24.59 -79.14,47.641 l 65.31,65.309 c 25.09,-25.098 60.69,-37.649 106.8,-37.649 47.12,0 70.69,13.828 70.69,41.5 0,22.012 -14.09,34.301 -42.26,36.871 l -63,6.16 c -77.88,7.68 -116.8,45.059 -116.8,112.168 0,39.961 15.62,71.719 46.87,95.289 28.68,21.512 64.54,32.274 107.57,32.274 68.64,0 119.6,-15.633 152.91,-46.871 l -61.47,-62.242 c -19.97,17.921 -50.98,26.902 -92.97,26.902 -37.92,0 -56.87,-12.82 -56.87,-38.43 0,-20.492 13.84,-32.011 41.5,-34.57 l 63.01,-6.16 c 79.39,-7.672 119.1,-46.86 119.1,-117.551"
         style="fill:#8cb5e2;fill-opacity:1;fill-rule:nonzero;stroke:none"
         id="path86" /><path
         d="m 2627.85,393.75 h -10 c -0.01,-19.988 -3.83,-37.172 -11.24,-52.012 -7.44,-14.828 -18.49,-27.457 -33.69,-38.16 l 0.01,0.012 c -28.6,-20.031 -66.62,-30.461 -114.9,-30.469 -36.8,-0.012 -66.48,3.32 -88.72,9.617 l 0.1,-0.027 c -28.09,8.23 -52.89,23.148 -74.88,45.109 l -7.07,-7.07 7.07,-7.07 65.31,65.308 -7.07,7.071 -7.07,-7.071 c 13.62,-13.636 30.18,-23.886 49.27,-30.597 19.08,-6.719 40.64,-9.981 64.6,-9.981 24.52,0.059 43.73,3.418 58.08,11.75 7.14,4.168 13,9.789 16.89,16.649 3.9,6.871 5.73,14.781 5.72,23.101 0,6.559 -1.06,12.801 -3.39,18.481 -3.47,8.57 -9.96,15.55 -18.23,20.121 -8.29,4.629 -18.22,7.168 -29.73,8.226 l 0.06,-0.008 -63.01,6.161 c -37.59,3.711 -64.42,14.488 -81.64,31.058 -8.64,8.321 -15.07,18.153 -19.45,29.891 -4.38,11.75 -6.67,25.449 -6.67,41.269 0.01,18.692 3.62,34.993 10.69,49.379 7.08,14.371 17.66,26.942 32.21,37.922 l -0.03,-0.012 c 26.74,20.024 60.17,30.243 101.57,30.274 33.57,0 62.5,-3.844 86.78,-11.281 24.29,-7.461 43.9,-18.45 59.3,-32.891 l 6.83,7.301 -7.12,7.027 -61.47,-62.238 7.12,-7.031 6.68,7.441 c -22.73,20.301 -56.35,29.441 -99.65,29.461 -20.04,-0.051 -36.11,-3.231 -48.25,-11.32 -6.03,-4.063 -10.89,-9.481 -14.04,-15.879 -3.15,-6.403 -4.59,-13.621 -4.58,-21.231 0,-6.242 1.07,-12.222 3.42,-17.66 3.5,-8.191 9.96,-14.769 18.07,-19.062 8.12,-4.348 17.81,-6.758 29.09,-7.809 l -0.06,0.012 63.01,-6.16 c 38.33,-3.711 65.65,-14.891 83.27,-32.313 8.85,-8.738 15.45,-19.129 19.96,-31.578 4.49,-12.43 6.85,-26.973 6.85,-43.711 h 10 10 c 0,18.602 -2.61,35.469 -8.04,50.5 -8.11,22.559 -22.79,40.789 -43.15,53.578 -20.37,12.832 -46.11,20.442 -76.95,23.434 l -63.01,6.148 -0.04,0.012 c -12.67,1.137 -21.05,4.387 -25.64,8.277 -2.33,1.961 -3.88,4.039 -5,6.61 -1.11,2.57 -1.78,5.711 -1.78,9.722 0.01,5.18 0.95,9.18 2.52,12.391 2.4,4.738 6.25,8.379 13.45,11.367 7.15,2.922 17.52,4.68 30.9,4.672 40.68,0.008 69.07,-8.801 86.29,-24.34 3.97,-3.57 10.04,-3.391 13.8,0.41 l 61.46,62.239 c 1.91,1.929 2.94,4.511 2.89,7.218 -0.06,2.711 -1.18,5.25 -3.16,7.102 -17.91,16.808 -40.44,29.25 -67.11,37.422 -26.69,8.179 -57.56,12.16 -92.64,12.16 -44.65,0.027 -82.94,-11.274 -113.56,-34.281 l -0.03,-0.012 c -16.7,-12.578 -29.56,-27.68 -38.11,-45.059 -8.55,-17.379 -12.75,-36.941 -12.74,-58.211 0,-17.73 2.57,-33.859 7.93,-48.25 7.99,-21.589 22.47,-39.019 42.45,-51.269 19.98,-12.27 45.18,-19.621 75.43,-22.61 l 63.02,-6.152 0.06,-0.008 c 12.87,-1.148 21.3,-4.539 26.03,-8.718 2.39,-2.114 4.04,-4.411 5.24,-7.301 1.2,-2.891 1.9,-6.449 1.9,-10.891 -0.01,-5.519 -1.13,-9.711 -3.12,-13.211 -2.97,-5.199 -8.29,-9.621 -17.82,-13.019 -9.46,-3.352 -22.81,-5.289 -39.75,-5.27 -22.15,0 -41.44,3.02 -57.96,8.852 -16.53,5.828 -30.31,14.418 -41.77,25.867 -1.86,1.871 -4.43,2.93 -7.07,2.93 -2.64,0 -5.21,-1.059 -7.07,-2.93 l -65.31,-65.309 c -3.91,-3.91 -3.91,-10.242 0,-14.14 24.1,-24.129 52.05,-41 83.39,-50.168 l 0.1,-0.024 c 24.87,-7.008 56.15,-10.359 94.15,-10.367 51.08,-0.012 93.51,11.09 126.37,34.078 l 0.02,0.012 c 17.57,12.348 31.1,27.629 40.07,45.59 8.98,17.949 13.37,38.418 13.36,60.949 h -10"
         style="fill:#8cb5e2;fill-opacity:1;fill-rule:nonzero;stroke:none"
         id="path88" /><path
         d="m 2983.61,393.75 c 0,-42.52 -16.41,-75.309 -49.18,-98.352 -30.73,-21.519 -70.96,-32.277 -120.64,-32.277 -37.4,0 -67.88,3.34 -91.43,9.988 -29.72,8.7 -56.1,24.59 -79.14,47.641 l 65.31,65.309 c 25.09,-25.098 60.69,-37.649 106.8,-37.649 47.13,0 70.69,13.828 70.69,41.5 0,22.012 -14.09,34.301 -42.26,36.871 l -63,6.16 c -77.87,7.68 -116.8,45.059 -116.8,112.168 0,39.961 15.62,71.719 46.87,95.289 28.69,21.512 64.55,32.274 107.57,32.274 68.65,0 119.6,-15.633 152.91,-46.871 l -61.47,-62.242 c -19.97,17.921 -50.98,26.902 -92.97,26.902 -37.92,0 -56.87,-12.82 -56.87,-38.43 0,-20.492 13.84,-32.011 41.5,-34.57 l 63.01,-6.16 c 79.39,-7.672 119.1,-46.86 119.1,-117.551"
         style="fill:#8cb5e2;fill-opacity:1;fill-rule:nonzero;stroke:none"
         id="path90" /><path
         d="m 2983.61,393.75 h -10 c -0.01,-19.988 -3.83,-37.172 -11.24,-52.012 -7.43,-14.828 -18.49,-27.457 -33.69,-38.16 l 0.02,0.012 c -28.61,-20.031 -66.62,-30.461 -114.91,-30.469 -36.8,-0.012 -66.48,3.32 -88.72,9.617 l 0.1,-0.027 c -28.09,8.23 -52.89,23.148 -74.88,45.109 l -7.07,-7.07 7.07,-7.07 65.31,65.308 -7.07,7.071 -7.07,-7.071 c 13.62,-13.636 30.19,-23.886 49.27,-30.597 19.08,-6.719 40.64,-9.981 64.6,-9.981 24.52,0.059 43.73,3.418 58.08,11.75 7.14,4.168 13,9.789 16.89,16.649 3.9,6.871 5.73,14.781 5.72,23.101 0,6.559 -1.05,12.801 -3.39,18.481 -3.46,8.57 -9.96,15.55 -18.23,20.121 -8.29,4.629 -18.21,7.168 -29.73,8.226 l 0.06,-0.008 -63.01,6.161 c -37.58,3.711 -64.42,14.488 -81.64,31.058 -8.64,8.321 -15.07,18.153 -19.45,29.891 -4.38,11.75 -6.67,25.449 -6.67,41.269 0.01,18.692 3.62,34.993 10.69,49.379 7.08,14.371 17.66,26.942 32.21,37.922 l -0.03,-0.012 c 26.74,20.024 60.17,30.243 101.57,30.274 33.57,0 62.5,-3.844 86.78,-11.281 24.29,-7.461 43.9,-18.45 59.3,-32.891 l 6.83,7.301 -7.12,7.027 -61.47,-62.238 7.12,-7.031 6.68,7.441 c -22.73,20.301 -56.35,29.441 -99.65,29.461 -20.04,-0.051 -36.11,-3.231 -48.25,-11.32 -6.03,-4.063 -10.89,-9.481 -14.04,-15.879 -3.15,-6.403 -4.58,-13.621 -4.58,-21.231 0,-6.242 1.07,-12.222 3.42,-17.66 3.5,-8.191 9.96,-14.769 18.07,-19.062 8.12,-4.348 17.81,-6.758 29.09,-7.809 l -0.06,0.012 63.01,-6.16 c 38.33,-3.711 65.65,-14.891 83.27,-32.313 8.85,-8.738 15.45,-19.129 19.96,-31.578 4.49,-12.43 6.85,-26.973 6.85,-43.711 h 10 10 c 0,18.602 -2.61,35.469 -8.04,50.5 -8.1,22.559 -22.79,40.789 -43.15,53.578 -20.36,12.832 -46.11,20.442 -76.95,23.434 l -63,6.148 -0.05,0.012 c -12.67,1.137 -21.05,4.387 -25.64,8.277 -2.33,1.961 -3.87,4.039 -5,6.61 -1.11,2.57 -1.78,5.711 -1.78,9.722 0.01,5.18 0.95,9.18 2.52,12.391 2.4,4.738 6.25,8.379 13.45,11.367 7.15,2.922 17.52,4.68 30.9,4.672 40.68,0.008 69.07,-8.801 86.29,-24.34 3.97,-3.57 10.04,-3.391 13.8,0.41 l 61.46,62.239 c 1.91,1.929 2.94,4.511 2.89,7.218 -0.06,2.711 -1.18,5.25 -3.16,7.102 -17.91,16.808 -40.44,29.25 -67.11,37.422 -26.69,8.179 -57.56,12.16 -92.64,12.16 -44.65,0.027 -82.94,-11.274 -113.56,-34.281 l -0.03,-0.012 c -16.7,-12.578 -29.56,-27.68 -38.11,-45.059 -8.55,-17.379 -12.75,-36.941 -12.74,-58.211 0,-17.73 2.57,-33.859 7.93,-48.25 7.99,-21.589 22.47,-39.019 42.45,-51.269 19.98,-12.27 45.19,-19.621 75.43,-22.61 l 63.02,-6.152 0.07,-0.008 c 12.86,-1.148 21.3,-4.539 26.02,-8.718 2.39,-2.114 4.04,-4.411 5.25,-7.301 1.19,-2.891 1.89,-6.449 1.89,-10.891 -0.01,-5.519 -1.13,-9.711 -3.11,-13.211 -2.97,-5.199 -8.3,-9.621 -17.83,-13.019 -9.46,-3.352 -22.81,-5.289 -39.75,-5.27 -22.15,0 -41.44,3.02 -57.96,8.852 -16.53,5.828 -30.3,14.418 -41.77,25.867 -1.85,1.871 -4.43,2.93 -7.07,2.93 -2.64,0 -5.2,-1.059 -7.07,-2.93 l -65.31,-65.309 c -3.91,-3.91 -3.91,-10.242 0,-14.14 24.1,-24.129 52.05,-41 83.4,-50.168 l 0.09,-0.024 c 24.88,-7.008 56.16,-10.359 94.15,-10.367 51.08,-0.012 93.51,11.09 126.37,34.078 l 0.02,0.012 c 17.57,12.348 31.1,27.629 40.07,45.59 8.98,17.949 13.37,38.418 13.36,60.949 h -10"
         style="fill:#8cb5e2;fill-opacity:1;fill-rule:nonzero;stroke:none"
         id="path92" /><path
         d="m 3137.27,267.73 h -100.65 v 400.321 h 100.65 z m 0,467.942 h -100.65 v 81.457 h 100.65 v -81.457"
         style="fill:#8cb5e2;fill-opacity:1;fill-rule:nonzero;stroke:none"
         id="path94" /><path
         d="m 3137.27,267.73 v 10 h -90.65 v 380.321 h 80.65 V 267.73 h 10 v 10 -10 h 10 v 400.321 c 0,2.64 -1.06,5.211 -2.93,7.07 -1.86,1.867 -4.43,2.93 -7.07,2.93 h -100.65 c -2.64,0 -5.21,-1.063 -7.07,-2.93 -1.87,-1.859 -2.93,-4.43 -2.93,-7.07 V 267.73 c 0,-2.64 1.06,-5.199 2.93,-7.07 1.86,-1.871 4.43,-2.93 7.07,-2.93 h 100.65 c 2.64,0 5.21,1.059 7.07,2.93 1.87,1.871 2.93,4.43 2.93,7.07 z m 0,467.942 v 10 h -90.65 v 61.457 h 80.65 v -71.457 h 10 v 10 -10 h 10 v 81.457 c 0,2.633 -1.06,5.199 -2.93,7.07 -1.86,1.86 -4.43,2.93 -7.07,2.93 h -100.65 c -2.64,0 -5.21,-1.07 -7.07,-2.93 -1.87,-1.871 -2.93,-4.437 -2.93,-7.07 v -81.457 c 0,-2.641 1.06,-5.211 2.93,-7.07 1.86,-1.872 4.43,-2.93 7.07,-2.93 h 100.65 c 2.64,0 5.21,1.058 7.07,2.93 1.87,1.859 2.93,4.429 2.93,7.07 h -10"
         style="fill:#8cb5e2;fill-opacity:1;fill-rule:nonzero;stroke:none"
         id="path96" /><path
         d="m 3440.78,468.281 c 0,49.18 -7.6,81.438 -22.81,96.809 -11.65,11.781 -27.11,17.68 -46.34,17.68 -18.74,0 -33.95,-5.899 -45.59,-17.68 -15.21,-15.371 -22.8,-47.629 -22.8,-96.809 0,-49.691 7.59,-82.222 22.8,-97.582 11.64,-11.801 26.85,-17.679 45.59,-17.679 19.23,0 34.69,5.878 46.34,17.679 15.21,15.36 22.81,47.891 22.81,97.582 z m 100.65,0 c 0,-38.422 -3.07,-68.902 -9.22,-91.441 -6.66,-25.11 -18.7,-46.621 -36.11,-64.539 -31.25,-32.789 -72.75,-49.18 -124.47,-49.18 -51.23,0 -92.47,16.391 -123.71,49.18 -17.43,17.918 -29.47,39.429 -36.12,64.539 -6.15,22.539 -9.22,53.019 -9.22,91.441 0,71.707 15.36,123.707 46.11,155.981 30.73,32.269 71.71,48.41 122.94,48.41 51.72,0 92.96,-16.141 123.7,-48.41 30.74,-32.274 46.1,-84.274 46.1,-155.981"
         style="fill:#8cb5e2;fill-opacity:1;fill-rule:nonzero;stroke:none"
         id="path98" /><path
         d="m 3440.78,468.281 h 10 c -0.01,25.098 -1.92,46.141 -5.97,63.379 -4.07,17.192 -10.24,30.82 -19.73,40.469 -13.59,13.851 -32.23,20.742 -53.45,20.641 -20.8,0.101 -39.18,-6.848 -52.7,-20.641 -9.48,-9.649 -15.65,-23.277 -19.73,-40.469 -4.05,-17.238 -5.95,-38.281 -5.96,-63.379 0.01,-25.359 1.91,-46.582 5.95,-63.941 4.09,-17.309 10.24,-31.012 19.74,-40.668 13.52,-13.82 31.91,-20.742 52.7,-20.652 21.21,-0.09 39.86,6.769 53.46,20.652 9.49,9.656 15.65,23.359 19.72,40.668 4.05,17.359 5.96,38.582 5.97,63.941 h -10 -10 c 0.01,-24.332 -1.89,-44.222 -5.44,-59.39 -3.53,-15.211 -8.77,-25.461 -14.48,-31.161 -9.7,-9.718 -21.97,-14.609 -39.23,-14.71 -16.7,0.101 -28.71,4.941 -38.47,14.699 -5.71,5.711 -10.96,15.961 -14.48,31.172 -3.56,15.168 -5.45,35.058 -5.44,59.39 -0.01,24.071 1.88,43.758 5.43,58.797 3.52,15.063 8.76,25.262 14.48,30.981 9.77,9.761 21.78,14.613 38.48,14.711 17.25,-0.09 29.53,-5.008 39.23,-14.711 5.73,-5.719 10.96,-15.918 14.49,-30.981 3.54,-15.039 5.44,-34.726 5.43,-58.797 z m 100.65,0 h -10 c 0.02,-37.871 -3.07,-67.652 -8.87,-88.801 l -0.02,-0.07 c -6.27,-23.59 -17.4,-43.43 -33.61,-60.14 l -0.07,-0.071 c -29.35,-30.668 -67.56,-45.969 -117.23,-46.078 -49.15,0.109 -87.1,15.379 -116.48,46.078 l -0.07,0.071 c -16.22,16.71 -27.34,36.55 -33.61,60.128 l -0.02,0.082 c -5.8,21.149 -8.89,50.93 -8.87,88.801 0,35.141 3.78,65.141 11.12,89.949 7.34,24.809 18.15,44.348 32.22,59.141 28.83,30.129 66.52,45.188 115.71,45.301 49.71,-0.113 87.65,-15.192 116.46,-45.301 14.07,-14.793 24.88,-34.332 32.23,-59.141 7.33,-24.808 11.11,-54.808 11.11,-89.949 h 10 10 c 0,36.559 -3.91,68.418 -11.93,95.61 -8.03,27.179 -20.27,49.781 -36.94,67.269 -32.66,34.418 -77.19,51.621 -130.93,51.512 -53.28,0.109 -97.54,-17.113 -130.18,-51.512 -16.67,-17.488 -28.91,-40.09 -36.93,-67.269 -8.04,-27.192 -11.94,-59.051 -11.94,-95.61 0.02,-38.972 3.07,-70.152 9.57,-94.07 l -0.02,0.07 c 7.04,-26.633 19.99,-49.82 38.62,-68.953 l 7.17,6.973 -7.24,-6.891 c 33.1,-34.898 77.64,-52.398 130.95,-52.289 53.78,-0.109 98.56,17.359 131.7,52.289 l -0.06,-0.082 c 18.61,19.133 31.56,42.32 38.61,68.942 l -0.02,-0.059 c 6.5,23.918 9.55,55.098 9.57,94.07 h -10"
         style="fill:#8cb5e2;fill-opacity:1;fill-rule:nonzero;stroke:none"
         id="path100" /><path
         d="m 3940.22,267.73 h -100.65 v 242.04 c 0,25.089 -7.14,44.05 -21.4,56.859 -11.72,10.762 -26.49,16.141 -44.31,16.141 -18.34,0 -33.36,-5.379 -45.07,-16.141 -14.25,-12.809 -21.39,-31.77 -21.39,-56.859 V 267.73 h -99.89 v 400.321 h 97.58 V 631.18 c 26.14,27.648 59.43,41.492 99.9,41.492 39.44,0 70.94,-11.793 94.51,-35.352 27.14,-27.16 40.72,-65.058 40.72,-113.718 V 267.73"
         style="fill:#8cb5e2;fill-opacity:1;fill-rule:nonzero;stroke:none"
         id="path102" /><path
         d="m 3940.22,267.73 v 10 h -90.65 v 232.04 c 0,13.492 -1.92,25.71 -6,36.55 -4.06,10.84 -10.37,20.27 -18.72,27.75 l -6.68,-7.441 6.77,7.359 c -13.58,12.563 -31.28,18.864 -51.08,18.782 -20.24,0.07 -38.2,-6.161 -51.83,-18.782 l 6.76,-7.359 -6.68,7.441 c -8.35,-7.48 -14.65,-16.91 -18.72,-27.75 -4.08,-10.84 -5.99,-23.058 -5.99,-36.55 V 277.73 h -79.89 v 380.321 h 77.58 V 631.18 c 0,-4.102 2.49,-7.782 6.3,-9.301 3.82,-1.508 8.15,-0.559 10.97,2.43 24.41,25.679 54.41,38.242 92.63,38.363 37.51,-0.094 65.86,-10.961 87.44,-32.422 12.5,-12.531 21.85,-27.422 28.19,-45.102 6.33,-17.66 9.6,-38.136 9.6,-61.546 V 267.73 h 10 v 10 -10 h 10 v 255.872 c 0,25.25 -3.53,48.058 -10.77,68.296 -7.24,20.231 -18.24,37.864 -32.88,52.493 -25.56,25.648 -60.22,38.371 -101.58,38.281 -42.73,0.117 -79.31,-14.992 -107.16,-44.633 l 7.26,-6.859 h 10 v 36.871 c 0,2.64 -1.06,5.211 -2.93,7.07 -1.86,1.867 -4.43,2.93 -7.07,2.93 h -97.58 c -2.63,0 -5.2,-1.063 -7.07,-2.93 -1.86,-1.859 -2.93,-4.43 -2.93,-7.07 V 267.73 c 0,-2.64 1.07,-5.199 2.93,-7.07 1.87,-1.871 4.44,-2.93 7.07,-2.93 h 99.89 c 2.63,0 5.2,1.059 7.07,2.93 1.86,1.871 2.93,4.43 2.93,7.07 v 242.04 c 0,11.601 1.66,21.41 4.7,29.511 3.08,8.117 7.47,14.578 13.37,19.91 l 0.09,0.071 c 9.79,8.91 21.87,13.437 38.3,13.508 15.85,-0.079 27.68,-4.54 37.54,-13.508 l 0.09,-0.071 c 5.91,-5.332 10.29,-11.793 13.37,-19.91 3.05,-8.101 4.71,-17.91 4.71,-29.511 V 267.73 c 0,-2.64 1.06,-5.199 2.93,-7.07 1.86,-1.871 4.43,-2.93 7.07,-2.93 h 100.65 c 2.64,0 5.2,1.059 7.07,2.93 1.87,1.871 2.93,4.43 2.93,7.07 h -10"
         style="fill:#8cb5e2;fill-opacity:1;fill-rule:nonzero;stroke:none"
         id="path104" /><path
         d="M 3945.91,0 H 1.40234 V 66.6719 H 3945.91 V 0"
         style="fill:#3d5981;fill-opacity:1;fill-rule:nonzero;stroke:none"
         id="path106" /></g></g></svg>
