<svg width="19" height="19" viewBox="0 0 19 19" fill="none" xmlns="http://www.w3.org/2000/svg">
<path d="M2.188 4.376C3.3964 4.376 4.376 3.3964 4.376 2.188C4.376 0.979601 3.3964 0 2.188 0C0.979601 0 0 0.979601 0 2.188C0 3.3964 0.979601 4.376 2.188 4.376Z" fill="#82b2de"/>
<path d="M6.4418 6.03437V18.1734H10.2108V12.1704C10.2108 10.5864 10.5088 9.05237 12.4728 9.05237C14.4098 9.05237 14.4338 10.8634 14.4338 12.2704V18.1744H18.2048V11.5174C18.2048 8.24738 17.5008 5.73438 13.6788 5.73438C11.8438 5.73438 10.6138 6.74137 10.1108 7.69438H10.0598V6.03437H6.4418ZM0.299805 6.03437H4.0748V18.1734H0.299805V6.03437Z" fill="#82b2de"/>
</svg>